<ttFont>
          <CharString index="0">
            rmoveto
            -365 177 -216 320 141 169 43 62 75 vhcurveto
            -32 97 rlineto
            -39 -60 -147 -37 -103 hhcurveto
            -211 -155 110 293 -10 hvcurveto
            -1 13 0 14 13 vvcurveto
            748 hlineto
            9 47 0 55 73 vvcurveto
            -7 260 -161 171 -241 -3 rrcurveto
            -328 -4 -183 -244 -343 vvcurveto
            170 100 rmoveto
            263 30 132 109 169 hhcurveto
            207 67 -163 -209 -12 hvcurveto
            return
          </CharString>
          <CharString index="1">
            rmoveto
            -322 -4 139 -285 362 hhcurveto
            294 217 207 363 5 hvcurveto
            323 4 -143 279 -356 hhcurveto
            -290 -223 -201 -364 -5 hvcurveto
            501 -488 rmoveto
            -232 3 -100 223 1 260 1 285 129 164 215 -3 227 -2 103 -210 -1 -262 -1 -285 -125 -176 -217 3 rrcurveto
            return
          </CharString>
          <CharString index="2">
            rmoveto
            -43 66 150 -39 146 hhcurveto
            243 155 113 200 197 -197 90 -150 59 hvcurveto
            -148 57 -103 57 2 120 rrcurveto
            90 1 85 65 163 hhcurveto
            112 108 -32 -30 39 hvcurveto
            28 127 -40 23 -120 37 -133 -1 rlinecurve
            -214 -1 -180 -91 -4 -196 -2 -186 150 -98 175 -71 rrcurveto
            136 -55 136 -53 -120 vvcurveto
            -118 -104 -59 -146 vhcurveto
            -138 2 -147 52 -43 30 rrcurveto
            return
          </CharString>
          <CharString index="3">
            -167 rmoveto
            -38 vlineto
            38 -10 34 -60 -70 vvcurveto
            -75 -27 -65 -26 -23 vhcurveto
            -20 vlineto
            58 -32 rlineto
            55 24 83 97 134 vvcurveto
            108 -46 78 -49 22 vhcurveto
            return
          </CharString>
          <CharString index="4">
            -216 104 -121 71 171 vvcurveto
            152 -1 167 69 162 hhcurveto
            157 95 -34 -48 74 hvcurveto
            35 133 rlineto
            36 -54 -114 46 -192 hhcurveto
            -231 -260 -96 -280 -225 200 -141 198 -90 hvcurveto
            213 -97 151 -69 -174 vvcurveto
            -168 -134 -79 -211 -144 -155 44 50 -81 vhcurveto
            return
          </CharString>
          <CharString index="5">
            rmoveto
            64 59 51 78 65 -35 48 -72 -61 -62 -54 -74 -72 49 -42 58 hvcurveto
            return
          </CharString>
          <CharString index="6">
            rmoveto
            88 57 215 205 68 101 -120 103 rcurveline
            -103 -142 -115 -126 -119 -130 rrcurveto
            return
          </CharString>
          <CharString index="7">
            -107 callsubr
            endchar
          </CharString>
          <CharString index="8">
            rmoveto
            -461 270 -309 418 216 96 50 30 92 vhcurveto
            -2 144 rlineto
            -35 -54 -151 -55 -190 hhcurveto
            -334 -193 277 371 406 221 228 316 229 89 -55 -15 46 hvcurveto
            24 150 rlineto
            14 -62 -104 44 -231 hhcurveto
            -381 -315 -280 -504 hvcurveto
            return
          </CharString>
          <CharString index="9">
            rmoveto
            -438 257 -328 436 308 125 102 5 85 vhcurveto
            659 -479 -122 vlineto
            316 -11 rlineto
            -436 vlineto
            -30 -58 -138 -37 -162 hhcurveto
            -330 -184 276 380 416 234 219 285 212 126 -41 -39 85 hvcurveto
            7 152 rlineto
            23 -119 -83 38 -218 hhcurveto
            -393 -312 -268 -520 hvcurveto
            return
          </CharString>
          <CharString index="10">
            rmoveto
            274 263 263 -263 103 44 -291 346 rlineto
            -149 hlineto
            -297 -347 rlineto
            return
          </CharString>
          <CharString index="11">
            rmoveto
            248 223 244 -223 110 47 -280 296 rlineto
            -149 hlineto
            return
          </CharString>
          <CharString index="12">
            167 878 hlineto
            86 69 139 69 108 2 rrcurveto
            195 8 48 -94 -226 vvcurveto
            -706 167 705 vlineto
            335 -93 121 -248 -4 vhcurveto
            -166 -3 -172 -100 -81 -61 rrcurveto
            return
          </CharString>
          <CharString index="13">
            169 663 hlineto
            132 -2 98 0 79 3 170 -42 107 -342 87 -178 28 -58 10 -23 16 -21 rrcurveto
            192 hlineto
            -18 28 -19 35 -21 39 -99 179 -109 319 -149 90 rrcurveto
            186 53 123 143 230 vvcurveto
            309 -213 111 -309 -131 -134 -12 -1 -95 vhcurveto
            return
          </CharString>
          <CharString index="14">
            -75 callgsubr
            hintmask 1111001000010000
            -87 callsubr
            hintmask 1111000010100000
            -71 callgsubr
            hintmask 1110100100100000
            -35 callsubr
            hintmask 1111000010100000
            7 callsubr
            hintmask 1111001000010000
            -80 callsubr
            hintmask 1110100100100000
            -84 callgsubr
            endchar
          </CharString>
          <CharString index="15">
            -91 callsubr
            endchar
          </CharString>
          <CharString index="16">
            rmoveto
            148 hlineto
            329 1096 37 182 37 -182 325 -1096 rlineto
            166 hlineto
            392 1538 rlineto
            -171 hlineto
            -236 -1007 -64 -331 -85 332 -301 1006 rlineto
            -125 hlineto
            -298 -1006 -74 -335 -69 335 -249 1006 rlineto
            -174 hlineto
            return
          </CharString>
          <CharString index="17">
            rmoveto
            85 68 -117 133 -119 134 -101 131 rlinecurve
            -120 -103 80 -115 197 -185 95 -63 rlinecurve
            endchar
          </CharString>
          <CharString index="18">
            rmoveto
            -244 120 -42 140 104 139 47 47 58 vhcurveto
            -29 97 rlineto
            -10 callsubr
            -113 -39 20 226 hvcurveto
            650 354 126 -354 260 -100 vlineto
            -21 -67 -16 -121 -13 -34 -18 -48 -83 -3 -74 -22 rrcurveto
            -91 159 vlineto
            return
          </CharString>
          <CharString index="19">
            105 591 -106 callsubr
            return
          </CharString>
          <CharString index="20">
            -121 -42 30 97 57 38 56 38 29 hvcurveto
            -14 47 52 -7 55 hhcurveto
            251 200 140 258 92 -26 75 -43 58 hvcurveto
            232 134 -107 hlineto
            -82 -90 -24 -25 -48 hvcurveto
            return
          </CharString>
          <CharString index="21">
            rmoveto
            -428 -1 172 -232 402 hhcurveto
            374 186 222 439 hvcurveto
            return
          </CharString>
          <CharString index="22">
            -82 callsubr
            endchar
          </CharString>
          <CharString index="23">
            133 -762 588 503 131 -503 539 689 131 -858 hlineto
            return
          </CharString>
          <CharString index="24">
            8 callgsubr
            737 114 562 123 -14 -20 -53 callgsubr
            833 176 hintmask 00000000
            hintmask 01110110
            11 callsubr
            22 callgsubr
            hintmask 10110110
            -77 callgsubr
            hintmask 10101110
            -1 -13 -95 0 -12 hhcurveto
            -671 -144 -114 144 vlineto
            169 -609 rmoveto
            609 434 114 -434 vlineto
            hintmask 10110110
            548 -73 callsubr
            hintmask 10101110
            -18 callsubr
          </CharString>
          <CharString index="25">
            931 -84 callsubr
            return
          </CharString>
          <CharString index="26">
            1589 -101 callgsubr
            return
          </CharString>
          <CharString index="27">
            459 686 rmoveto
            -178 -94 118 156 213 136 62 148 1 hvcurveto
            167 1 103 -89 -182 vvcurveto
            -203 -116 -77 -166 vhcurveto
            return
          </CharString>
          <CharString index="28">
            rmoveto
            164 147 84 184 2 hvcurveto
            164 1 -120 94 -189 hhcurveto
            -151 -157 -73 27 callsubr
            -107 19 callsubr
            68 1 102 rrcurveto
            121 1 97 41 93 hhcurveto
            112 -1 79 -58 -105 vvcurveto
            -119 -86 -51 -108 vhcurveto
            return
          </CharString>
          <CharString index="29">
            -74 2 51 -50 58 hhcurveto
            66 59 59 82 -3 hvcurveto
            68 -1 -38 56 -72 hhcurveto
            -64 -59 -62 -79 1 hvcurveto
            return
          </CharString>
          <CharString index="30">
            -61 vlineto
            -61 31 -7 53 vhcurveto
            64 1152 -167 -911 hlineto
            return
          </CharString>
          <CharString index="31">
            -54 callsubr
            269 30 callgsubr
            183 -15 callsubr
            hintmask 11001000
            211 hmoveto
            -66 callgsubr
            hintmask 00110000
            79 5 callsubr
          </CharString>
          <CharString index="32">
            -104 callgsubr
            endchar
          </CharString>
          <CharString index="33">
            107 117 80 96 43 hvcurveto
            -67 56 rlineto
            -45 -38 -67 -60 -81 -121 -15 150 -166 hhcurveto
            return
          </CharString>
          <CharString index="34">
            vlineto
            7 69 84 7 96 hhcurveto
            388 198 -186 -447 -2 hvcurveto
            -2 -460 -220 -206 -321 -4 rrcurveto
            return
          </CharString>
          <CharString index="35">
            hmoveto
            531 114 hlineto
            -167 109 -205 281 359 vvcurveto
            384 259 174 272 249 266 -157 -401 -365 -176 -275 -181 -109 vhcurveto
            1 -114 rlineto
            561 118 -385 hlineto
            195 146 155 285 320 vvcurveto
            437 -296 239 -389 -348 -351 -216 -460 -2 vhcurveto
            -2 -320 185 -295 180 -136 rrcurveto
            -352 hlineto
            endchar
          </CharString>
          <CharString index="36">
            171 hintmask 11001010
            -68 callsubr
            return
          </CharString>
          <CharString index="37">
            rmoveto
            85 74 154 186 70 118 -124 85 rcurveline
            -24 -40 -212 -331 -28 -38 rrcurveto
            570 -54 rmoveto
            89 72 160 185 64 112 -118 85 rcurveline
            -25 -40 -219 -322 -29 -38 rrcurveto
            return
          </CharString>
          <CharString index="38">
            145 hlineto
            658 1530 rlineto
            -145 hlineto
            -794 -844 rmoveto
            196 5 179 141 259 vvcurveto
            224 -105 183 -241 -6 vhcurveto
            -196 -6 -179 -142 -261 vvcurveto
            -215 128 -186 218 4 vhcurveto
            10 112 rmoveto
            -130 -1 -77 129 163 vvcurveto
            179 88 110 129 2 vhcurveto
            135 2 71 -122 -174 vvcurveto
            -181 -88 -105 -128 -2 vhcurveto
            return
          </CharString>
          <CharString index="39">
            111 769 -106 callgsubr
            return
          </CharString>
          <CharString index="40">
            221 hmoveto
            171 1522 -171 hlineto
            return
          </CharString>
          <CharString index="41">
            -173 -16 126 443 112 372 119 return
          </CharString>
          <CharString index="42">
            rmoveto
            85 68 94 101 82 114 -130 68 rcurveline
            -26 -42 -164 -216 -36 -40 rrcurveto
            563 -53 rmoveto
            88 67 101 105 72 102 -124 68 rcurveline
            -23 -35 -173 -214 -37 -40 rrcurveto
            endchar
          </CharString>
          <CharString index="43">
            21 -54 callgsubr
            return
          </CharString>
          <CharString index="44">
            -52 -16 138 -113 -21 1152 -20 return
          </CharString>
          <CharString index="45">
            -156 -16 125 466 107 348 127 return
          </CharString>
          <CharString index="46">
            rmoveto
            148 hlineto
            18 1307 rlineto
            -187 hlineto
            -27 -1672 rmoveto
            -74 2 50 -50 59 hhcurveto
            66 58 59 82 -2 hvcurveto
            68 -2 -37 56 -73 hhcurveto
            -63 -60 -62 -79 2 hvcurveto
            return
          </CharString>
          <CharString index="47">
            110 vstem
            204 965 rmoveto
            -482 382 -388 480 480 383 388 482 480 -383 386 -480 -480 -382 -386 -480 vhcurveto
            109 hmoveto
            424 325 345 428 428 325 -345 -424 -426 -325 -345 -428 -428 -325 345 426 vhcurveto
            return
          </CharString>
          <CharString index="48">
            249 -102 callsubr
            return
          </CharString>
          <CharString index="49">
            173 -16 133 1405 -20 21 -20 return
          </CharString>
          <CharString index="50">
            271 -16 130 1295 129 return
          </CharString>
          <CharString index="51">
            rmoveto
            164 147 77 183 2 hvcurveto
            165 1 -120 88 -189 hhcurveto
            -151 -157 -67 27 callsubr
            -100 19 callsubr
            62 1 101 rrcurveto
            121 1 97 35 93 hhcurveto
            112 -1 79 -53 -105 vvcurveto
            -118 -86 -45 -108 1 vhcurveto
            endchar
          </CharString>
          <CharString index="52">
            169 488 hlineto
            229 265 116 -179 196 -279 103 -182 rlinecurve
            35 -62 11 -26 16 -25 rrcurveto
            196 hlineto
            -67 111 -120 210 -279 396 -101 159 rlinecurve
            541 646 rlineto
            -201 hlineto
            -675 -821 rlineto
            821 -169 vlineto
            endchar
          </CharString>
          <CharString index="53">
            -713 21 -32 callgsubr
            return
          </CharString>
          <CharString index="54">
            145 60 71 96 116 vvcurveto
            132 -115 112 -237 -7 vhcurveto
            -79 -3 -150 -38 -81 -67 48 -92 rcurveline
            67 49 98 36 81 4 143 9 70 -74 2 -78 3 -91 -59 -69 -105 -42 -45 -18 -69 -23 -53 -11 29 -98 rcurveline
            119 33 rlineto
            return
          </CharString>
          <CharString index="55">
            -1388 -103 callgsubr
            return
          </CharString>
          <CharString index="56">
            44 38 67 60 86 123 7 -149 176 hhcurveto
            return
          </CharString>
          <CharString index="57">
            276 0 133 -112 -21 hstemhm
            55 1466 hintmask 00000000
            hintmask 01100000
            55 21 rmoveto
            hintmask 10100000
            13 -21 rlineto
            1438 hlineto
            15 25 -749 1483 rlineto
            -29 hlineto
            -472 -1375 rmoveto
            493 1086 530 -1086 rlineto
            endchar
          </CharString>
          <CharString index="58">
            -8 15 82 -5 36 hhcurveto
            227 112 158 372 hvcurveto
            1116 -166 vlineto
            return
          </CharString>
          <CharString index="59">
            -17 callsubr
            hintmask 00100010
            -42 callgsubr
            hintmask 00010010
            4 callgsubr
            hintmask 00010100
            -33 callgsubr
            hintmask 00100100
            -42 callsubr
            hintmask 00010100
            3 callsubr
            return
          </CharString>
          <CharString index="60">
            rmoveto
            64 57 46 77 hvcurveto
            hintmask 00010010
            -42 callgsubr
            hintmask 00100010
            4 callgsubr
            hintmask 00010010
            -33 callgsubr
            hintmask 00011000
            -42 callsubr
            hintmask 00101000
            3 callsubr
            endchar
          </CharString>
          <CharString index="61">
            167 877 hlineto
            57 57 113 75 132 hhcurveto
            83 36 -13 -10 19 hvcurveto
            return
          </CharString>
          <CharString index="62">
            rmoveto
            161 1005 hlineto
            -82 21 -47 -39 -182 -120 -121 -35 rlinecurve
            32 -92 101 22 67 45 71 18 rlinecurve
            return
          </CharString>
          <CharString index="63">
            2 callgsubr
            hintmask 10100100
            211 -28 callsubr
            hintmask 01100100
            -124 vlineto
            hintmask 10100100
            -49 callsubr
            hintmask 00011000
            return
          </CharString>
          <CharString index="64">
            171 1391 498 131 -1160 -131 491 hlineto
            endchar
          </CharString>
          <CharString index="65">
            65 -33 44 -71 -62 -59 -50 -74 vhcurveto
            return
          </CharString>
          <CharString index="66">
            -12 -109 rlineto
            -16 23 68 -12 49 hhcurveto
            return
          </CharString>
          <CharString index="67">
            -97 callsubr
            endchar
          </CharString>
          <CharString index="68">
            -69 vlineto
            -63 34 -6 51 vhcurveto
            72 1676 -167 -478 hlineto
            3 -68 rlineto
            20 -52 -77 18 -92 hhcurveto
            return
          </CharString>
          <CharString index="69">
            110 301 rmoveto
            -198 return
          </CharString>
          <CharString index="70">
            -49 -70 -68 44 -38 return
          </CharString>
          <CharString index="71">
            161 108 99 93 39 hvcurveto
            -79 76 rlineto
            -66 -47 -71 -59 -102 -153 -40 172 -194 hhcurveto
            return
          </CharString>
          <CharString index="72">
            -81 -58 -54 -88 -1 -77 -1 -66 15 -65 72 -40 rrcurveto
            return
          </CharString>
          <CharString index="73">
            111 rmoveto
            58 -21 48 -104 -82 vvcurveto
            -156 -75 -118 -68 -39 vhcurveto
            1 -21 56 -69 rlineto
            127 56 117 172 226 vvcurveto
            108 -40 139 -119 56 vhcurveto
            -105 -99 rlineto
            return
          </CharString>
          <CharString index="74">
            -3 callgsubr
            993 -20 return
          </CharString>
          <CharString index="75">
            8 -19 -37 5 -52 hhcurveto
            -148 -153 -109 -60 -46 hvcurveto
            return
          </CharString>
          <CharString index="76">
            -93 callgsubr
            endchar
          </CharString>
          <CharString index="77">
            -154 -59 -92 -105 -150 vvcurveto
            862 364 rmoveto
            263 30 132 109 168 hhcurveto
            207 67 -163 -209 -12 hvcurveto
            -1286 -351 rmoveto
            return
          </CharString>
          <CharString index="78">
            -36 64 rlineto
            -995 -135 810 hlineto
            -85 -112 rlineto
            return
          </CharString>
          <CharString index="79">
            -41 rmoveto
            -244 -56 -104 -134 -39 -56 10 9 -21 vhcurveto
            return
          </CharString>
          <CharString index="80">
            -1 146 rlineto
            -149 hlineto
            return
          </CharString>
          <CharString index="81">
            rmoveto
            -653 448 -44 -125 534 -391 -534 -388 44 -121 return
          </CharString>
          <CharString index="82">
            141 -16 130 508 127 656 133 return
          </CharString>
          <CharString index="83">
            21 -21 56 112 518 112 -48 111 519 112 38 -20 hstemhm
            85 149 423 149 332 149 422 149 return
          </CharString>
          <CharString index="84">
            21 -21 1014 126 return
          </CharString>
          <CharString index="85">
            -119 -99 -91 -85 -41 hvcurveto
            endchar
          </CharString>
          <CharString index="86">
            169 535 hlineto
            40 -1 99 -8 108 1 rrcurveto
            353 2 218 186 330 vvcurveto
            355 -205 136 -322 vhcurveto
            return
          </CharString>
          <CharString index="87">
            150 hlineto
            541 1530 rlineto
            -152 hlineto
            return
          </CharString>
          <CharString index="88">
            127 22 126 -100 -20 hstemhm
            return
          </CharString>
          <CharString index="89">
            -88 -1 -125 8 -77 11 rrcurveto
            endchar
          </CharString>
          <CharString index="90">
            1690 rmoveto
            64 57 46 77 hvcurveto
            return
          </CharString>
          <CharString index="91">
            -317 -16 124 924 124 return
          </CharString>
          <CharString index="92">
            230 -202 166 return
          </CharString>
          <CharString index="93">
            167 hintmask 00000000
            return
          </CharString>
          <CharString index="94">
            8 0 133 1254 135 -64 64 return
          </CharString>
          <CharString index="95">
            hstemhm
            183 166 return
          </CharString>
          <CharString index="96">
            25 callsubr
            710 792 -710 169 1522 -169 -682 -792 682 -169 hlineto
            return
          </CharString>
          <CharString index="97">
            -26 -38 -108 -31 -68 hhcurveto
            return
          </CharString>
          <CharString index="98">
            -1 callgsubr
            endchar
          </CharString>
          <CharString index="99">
            555 vlineto
            8 55 122 4 55 hhcurveto
            217 149 -69 -191 -183 -94 -116 -157 -12 hvcurveto
            return
          </CharString>
          <CharString index="100">
            rmoveto
            65 46 65 61 102 156 34 -173 194 hhcurveto
            return
          </CharString>
          <CharString index="101">
            608 5 -21 1538 -20 return
          </CharString>
          <CharString index="102">
            232 -211 -21 hstemhm
            return
          </CharString>
          <CharString index="103">
            hstemhm
            171 168 return
          </CharString>
          <CharString index="104">
            hintmask 0000000000000000
            return
          </CharString>
          <CharString index="105">
            49 705 135 hstem
            247 856 vstem
            247 705 rmoveto
            856 135 -856 hlineto
            endchar
          </CharString>
          <CharString index="106">
            153 -2 92 -81 -2 -117 rrcurveto
            -124 -82 -98 -222 -2 vhcurveto
            -91 -1 -58 12 -76 23 rrcurveto
            return
          </CharString>
          <CharString index="107">
            -327 rmoveto
            -41 callgsubr
            5 90 -11 return
          </CharString>
          <CharString index="108">
            58 21 13 callsubr
            return
          </CharString>
          <CharString index="109">
            -16 131 -106 -21 1046 122 return
          </CharString>
          <CharString index="110">
            -70 47 -38 57 vhcurveto
            return
          </CharString>
          <CharString index="111">
            hstemhm
            110 165 return
          </CharString>
          <CharString index="112">
            -59 callsubr
            endchar
          </CharString>
          <CharString index="113">
            -739 -507 118 -84 -21 1633 -20 return
          </CharString>
          <CharString index="114">
            -71 -39 -88 -85 -116 vvcurveto
            return
          </CharString>
          <CharString index="115">
            119 382 118 return
          </CharString>
          <CharString index="116">
            193 167 return
          </CharString>
          <CharString index="117">
            169 699 509 131 -509 561 682 131 -851 hlineto
            endchar
          </CharString>
          <CharString index="118">
            206 hmoveto
            return
          </CharString>
          <CharString index="119">
            rmoveto
            64 57 49 77 62 -33 47 -72 -61 -61 -54 -71 -70 48 -40 58 hvcurveto
            endchar
          </CharString>
          <CharString index="120">
            -21 663 114 634 125 -13 -20 return
          </CharString>
          <CharString index="121">
            hstemhm
            9 callsubr
            return
          </CharString>
          <CharString index="122">
            111 171 return
          </CharString>
          <CharString index="123">
            339 -962 rlineto
            93 hlineto
            323 962 124 450 44 -450 rlineto
            return
          </CharString>
          <CharString index="124">
            rmoveto
            23 callsubr
          </CharString>
          <CharString index="125">
            -64 callsubr
            179 -21 hstemhm
            return
          </CharString>
          <CharString index="126">
            190 hhcurveto
            1 97 rmoveto
            -119 2 -70 return
          </CharString>
          <CharString index="127">
            127 27 123 hstemhm
            return
          </CharString>
          <CharString index="128">
            21 44 callsubr
            return
          </CharString>
          <CharString index="129">
            118 444 114 return
          </CharString>
          <CharString index="130">
            -66 callgsubr
            endchar
          </CharString>
          <CharString index="131">
            -58 -177 1 5 -49 hvcurveto
            return
          </CharString>
          <CharString index="132">
            11 callsubr
            169 return
          </CharString>
          <CharString index="133">
            -235 0 133 1389 -20 return
          </CharString>
          <CharString index="134">
            -184 -3 hvcurveto
            -162 -3 119 return
          </CharString>
          <CharString index="135">
            33 1328 return
          </CharString>
          <CharString index="136">
            hstemhm
            105 170 return
          </CharString>
          <CharString index="137">
            96 428 127 431 128 hstem
            241 915 vstem
            return
          </CharString>
          <CharString index="138">
            rmoveto
            164 1 91 947 38 450 136 -450 rlineto
            return
          </CharString>
          <CharString index="139">
            -54 -485 -21 490 122 919 131 -16 -20 return
          </CharString>
          <CharString index="140">
            25 callgsubr
            -26 return
          </CharString>
          <CharString index="141">
            169 vstem
            25 callsubr
            return
          </CharString>
          <CharString index="142">
            134 896 126 return
          </CharString>
          <CharString index="143">
            -20 hstem
            -30 callgsubr
            return
          </CharString>
          <CharString index="144">
            -21 hstemhm
            32 1846 return
          </CharString>
          <CharString index="145">
            -94 -57 -115 -114 2 -128 rrcurveto
            -136 1 return
          </CharString>
          <CharString index="146">
            -460 -191 108 1710 110 hstem
            return
          </CharString>
          <CharString index="147">
            -744 1699 -21 hstem
            50 457 vstem
            return
          </CharString>
          <CharString index="148">
            514 0 118 1303 124 hstem
            return
          </CharString>
          <CharString index="149">
            134 15 callgsubr
            return
          </CharString>
          <CharString index="150">
            hstemhm
            15 callsubr
            return
          </CharString>
          <CharString index="151">
            -21 1017 140 return
          </CharString>
          <CharString index="152">
            114 424 64 398 111 hstemhm
            return
          </CharString>
          <CharString index="153">
            334 3 -21 984 174 0 -20 return
          </CharString>
        <CharString name=".notdef">
          571 0 219 hstem
          228 1416 vstem
          228 hmoveto
          1416 1416 -1416 hlineto
          230 -1053 rmoveto
          358 342 -359 363 123 125 357 -368 352 366 128 -124 -363 -358 363 -368 -122 -122 -362 368 -347 -368 rlineto
          endchar
        </CharString>
        <CharString name=".null">
          endchar
        </CharString>
        <CharString name="A">
          -52 callgsubr
          hstem
          28 callsubr
          vstem
          -102 callgsubr
          endchar
        </CharString>
        <CharString name="AE">
          23 callgsubr
          -112 112 hstemhm
          839 169 hintmask 00000000
          hintmask 11110100
          -55 hmoveto
          -31 callgsubr
          hintmask 11101100
          42 callgsubr
        </CharString>
        <CharString name="AEacute">
          23 callgsubr
          159 -21 hstemhm
          839 169 -109 458 hintmask 00001010
          971 -81 callsubr
          hintmask 00000000
          -954 -1660 rmoveto
          -31 callgsubr
          hintmask 11110100
          42 callgsubr
        </CharString>
        <CharString name="Aacute">
          -52 callgsubr
          163 -21 hstemhm
          28 callsubr
          -782 458 hintmask 11101000
          -102 callgsubr
          hintmask 00010100
          -336 1044 -101 callgsubr
          endchar
        </CharString>
        <CharString name="Abreve">
          -52 callgsubr
          124 132 hstemhm
          28 callsubr
          -1001 677 hintmask 11101000
          -102 callgsubr
          hintmask 00010100
          -288 1097 -34 callgsubr
        </CharString>
        <CharString name="Acircumflex">
          -52 callgsubr
          142 10 callgsubr
          28 callsubr
          -1015 706 hintmask 11100100
          -102 callgsubr
          hintmask 00000000
          -537 1094 -96 callsubr
          hintmask 00011010
          -47 callgsubr
        </CharString>
        <CharString name="Adieresis">
          -52 callgsubr
          172 -5 callsubr
          28 callsubr
          -1015 9 callgsubr
          hintmask 11100100
          -102 callgsubr
          hintmask 00000000
          -57 1145 rmoveto
          64 57 46 77 hvcurveto
          hintmask 00001001
          -42 callgsubr
          hintmask 00010001
          4 callgsubr
          hintmask 00001001
          -33 callgsubr
          hintmask 00001010
          -42 callsubr
          hintmask 00010010
          3 callsubr
          endchar
        </CharString>
        <CharString name="Agrave">
          -52 callgsubr
          163 -21 hstemhm
          28 callsubr
          -1001 458 hintmask 11101000
          -102 callgsubr
          hintmask 00010100
          -240 1044 -43 callgsubr
        </CharString>
        <CharString name="Amacron">
          -52 callgsubr
          225 124 hstemhm
          28 callsubr
          -932 543 hintmask 11101000
          -102 callgsubr
          hintmask 00010100
          -558 1198 -56 callgsubr
          endchar
        </CharString>
        <CharString name="Aogonek">
          92 29 callgsubr
          420 -33 callsubr
          hstem
          902 164 vstem
          -80 callgsubr
          12 hlineto
          -119 -59 -171 -113 2 -140 rrcurveto
          -136 1 107 -64 133 hhcurveto
          84 96 21 41 54 hvcurveto
          46 callgsubr
          -64 26 93 -2 hvcurveto
          -1 117 157 108 102 55 rrcurveto
          37 hlineto
          -574 1538 rlineto
          -166 hlineto
          -209 -993 rmoveto
          255 694 38 121 38 -120 244 -695 rlineto
          endchar
        </CharString>
        <CharString name="Aring">
          92 21 -3 callgsubr
          1332 95 hstem
          388 8 callsubr
          vstem
          -80 callgsubr
          183 hlineto
          -550 1473 111 30 83 78 2 138 rlinecurve
          165 1 -120 88 -189 hhcurveto
          -151 -157 -67 -184 -3 hvcurveto
          -3 -132 78 -90 131 -30 rrcurveto
          101 87 rmoveto
          -119 2 -70 62 1 101 rrcurveto
          121 1 97 35 93 hhcurveto
          112 -1 79 -53 -105 vvcurveto
          -118 -86 -45 -108 1 vhcurveto
          -283 -1011 rmoveto
          255 694 38 121 38 -120 244 -695 rlineto
          endchar
        </CharString>
        <CharString name="Atilde">
          -52 callgsubr
          149 20 callsubr
          28 callsubr
          -1073 822 hintmask 11100100
          -102 callgsubr
          hintmask 00000000
          -633 1168 rmoveto
          hintmask 00010010
          -50 callgsubr
          hintmask 00011010
          -74 callsubr
          hintmask 00010010
          -9 callgsubr
          endchar
        </CharString>
        <CharString name="B">
          26 callgsubr
          hstemhm
          206 168 598 164 -67 172 hintmask 00000000
          hintmask 01110101
          11 callsubr
          89 hlineto
          hintmask 10110101
          -8 callgsubr
          hintmask 10110110
          -2 callgsubr
          hintmask 10101101
          -92 1 rlineto
          168 -675 rmoveto
          hintmask 10110110
          -8 callsubr
          hintmask 10101101
          -75 -207 -5 9 -65 hvcurveto
          hintmask 10110101
          -29 callgsubr
        </CharString>
        <CharString name="C">
          -16 callgsubr
          hstem
          107 168 vstem
          107 754 -99 callsubr
          endchar
        </CharString>
        <CharString name="CR">
          endchar
        </CharString>
        <CharString name="Cacute">
          -16 callgsubr
          143 -21 hstemhm
          107 168 408 458 hintmask 11010000
          107 754 -99 callsubr
          hintmask 00101000
          648 835 -101 callgsubr
          endchar
        </CharString>
        <CharString name="Ccaron">
          -16 callgsubr
          150 -21 hstemhm
          107 168 186 681 hintmask 11010000
          107 754 -99 callsubr
          hintmask 00000000
          622 913 -9 callsubr
        </CharString>
        <CharString name="Ccedilla">
          27 -464 119 331 132 1282 138 hstem
          107 168 480 124 vstem
          522 0 callsubr
          75 -24 53 179 7 87 43 84 28 -2 144 rcurveline
          -35 -54 -151 -55 -190 hhcurveto
          -334 -193 277 371 406 221 228 316 229 89 -55 -15 46 hvcurveto
          24 150 rlineto
          14 -62 -104 44 -231 hhcurveto
          -381 -315 -280 -504 -442 248 -302 388 -24 hvcurveto
          12 -38 6 -51 -6 -77 rrcurveto
          -118 -6 -57 -47 -80 hhcurveto
          -37 -36 7 11 -17 hvcurveto
          endchar
        </CharString>
        <CharString name="Ccircumflex">
          -16 callgsubr
          122 10 callgsubr
          107 168 175 706 hintmask 11001000
          107 754 -99 callsubr
          hintmask 00000000
          447 885 -96 callsubr
          hintmask 00110100
          -47 callgsubr
        </CharString>
        <CharString name="Cdotaccent">
          -16 callgsubr
          174 -21 hstemhm
          107 168 414 227 hintmask 00101000
          795 -92 callgsubr
          hintmask 11010000
          -688 -937 -99 callsubr
          endchar
        </CharString>
        <CharString name="D">
          32 callgsubr
          -53 callgsubr
          833 176 hintmask 00000000
          hintmask 01101100
          11 callsubr
          22 callgsubr
          hintmask 10101100
          -77 callgsubr
          hintmask 10011100
          7 callgsubr
          hintmask 10101100
          1271 -73 callsubr
          hintmask 10011100
          -18 callsubr
        </CharString>
        <CharString name="DC1">
          endchar
        </CharString>
        <CharString name="DC2">
          endchar
        </CharString>
        <CharString name="DC3">
          endchar
        </CharString>
        <CharString name="DC4">
          endchar
        </CharString>
        <CharString name="DEL">
          endchar
        </CharString>
        <CharString name="DLE">
          endchar
        </CharString>
        <CharString name="Dcaron">
          32 callgsubr
          165 113 -92 -21 -53 callgsubr
          -2 681 154 176 -3 callsubr
          hintmask 0000010100000000
          641 1667 -58 callgsubr
          hintmask 0000100100000000
          -57 callgsubr
          -3 callsubr
          -167 -1936 rmoveto
          22 callgsubr
          hintmask 0110001010000000
          -77 callgsubr
          hintmask 1010001010000000
          7 callgsubr
          hintmask 1001001010000000
          1271 -73 callsubr
          hintmask 1010001010000000
          -18 callsubr
        </CharString>
        <CharString name="Dcroat">
          -83 callsubr
        </CharString>
        <CharString name="Delta">
          -50 callsubr
        </CharString>
        <CharString name="E">
          -61 callgsubr
          hstem
          -30 callgsubr
          vstem
          11 callsubr
          -85 callsubr
        </CharString>
        <CharString name="Eacute">
          -61 callgsubr
          159 -21 -53 callgsubr
          178 458 hintmask 00010100
          625 -81 callsubr
          hintmask 11101000
          -347 -1660 rmoveto
          -85 callsubr
        </CharString>
        <CharString name="Ebreve">
          -61 callgsubr
          120 132 -53 callgsubr
          -41 677 hintmask 00010100
          673 1642 -97 callgsubr
          hintmask 11101000
          -467 -1642 rmoveto
          -85 callsubr
        </CharString>
        <CharString name="Ecaron">
          -61 callgsubr
          43 callgsubr
          206 169 -43 681 hintmask 00000000
          hintmask 00001010
          600 1667 -58 callgsubr
          hintmask 00010010
          -57 callgsubr
          hintmask 11100100
          -126 -1936 rmoveto
          -85 callsubr
        </CharString>
        <CharString name="Ecircumflex">
          -61 callgsubr
          138 -21 68 -21 -53 callgsubr
          -54 706 hintmask 11100100
          11 callsubr
          -82 callsubr
          hintmask 00000000
          219 117 -96 callsubr
          hintmask 00011010
          -47 callgsubr
        </CharString>
        <CharString name="Edieresis">
          -61 callgsubr
          168 -5 callsubr
          206 169 -54 9 callgsubr
          hintmask 00000000
          hintmask 00001001
          905 -17 callsubr
          hintmask 00010001
          -42 callgsubr
          hintmask 00001001
          4 callgsubr
          hintmask 00001010
          -33 callgsubr
          hintmask 00010010
          -42 callsubr
          hintmask 00001010
          3 callsubr
          hintmask 11100100
          -219 -1690 rmoveto
          -85 callsubr
        </CharString>
        <CharString name="Edotaccent">
          -61 callgsubr
          190 -21 -53 callgsubr
          185 227 hintmask 00010100
          666 -92 callgsubr
          hintmask 11101000
          -460 -1691 rmoveto
          -85 callsubr
        </CharString>
        <CharString name="Egrave">
          -61 callgsubr
          159 -21 -53 callgsubr
          -40 458 hintmask 00010100
          722 1589 -85 callgsubr
          hintmask 11101000
          -516 -1589 rmoveto
          -85 callsubr
        </CharString>
        <CharString name="Emacron">
          -61 callgsubr
          221 124 -53 callgsubr
          28 543 hintmask 00010100
          403 13 callgsubr
          hintmask 11101000
          -197 -1867 rmoveto
          -85 callsubr
        </CharString>
        <CharString name="Eng">
          279 -64 callsubr
          hstem
          205 165 832 166 vstem
          11 callsubr
          165 972 hlineto
          -9 314 144 -246 683 -1005 -3 -134 -209 -167 -199 -57 rlinecurve
          44 -80 186 29 244 137 69 229 rlinecurve
          42 122 5 139 152 vvcurveto
          1117 -166 -999 vlineto
          14 -304 -133 236 -720 1067 rlineto
          -158 hlineto
          endchar
        </CharString>
        <CharString name="Eogonek">
          -98 29 callgsubr
          399 133 588 131 539 131 hstem
          -30 callgsubr
          252 164 vstem
          11 callsubr
          717 hlineto
          -140 -57 -158 -123 2 -139 rrcurveto
          -136 1 106 -57 1 callgsubr
          -2 117 160 107 109 56 rrcurveto
          79 -84 callsubr
          endchar
        </CharString>
        <CharString name="Eth">
          -83 callsubr
        </CharString>
        <CharString name="Euro">
          221 -28 123 432 110 262 109 403 127 hstem
          311 182 vstem
          119 527 rmoveto
          206 hlineto
          -336 53 199 -219 342 hhcurveto
          289 75 75 14 88 hvcurveto
          -46 126 rlineto
          -42 -75 -132 -50 -178 hhcurveto
          -264 -124 173 259 -42 hvcurveto
          562 110 -574 hlineto
          -3 42 -2 43 45 vvcurveto
          46 2 44 5 42 vhcurveto
          605 109 -587 hlineto
          274 64 178 129 209 hhcurveto
          165 -1 89 -27 78 -42 41 134 rcurveline
          -82 21 -84 48 -203 -6 -322 -9 -227 -192 -81 -329 rrcurveto
          -193 -109 173 hlineto
          -8 -57 -4 -59 -63 vvcurveto
          -28 1 -28 1 -27 vhcurveto
          -194 hlineto
          endchar
        </CharString>
        <CharString name="F">
          40 callgsubr
          hstem
          206 169 vstem
          206 hmoveto
          10 callsubr
        </CharString>
        <CharString name="G">
          -25 callsubr
          hstem
          110 176 872 163 vstem
          110 750 -98 callgsubr
        </CharString>
        <CharString name="Gbreve">
          -25 callsubr
          104 132 hstemhm
          110 176 194 677 1 163 hintmask 00010100
          819 1642 -97 callgsubr
          hintmask 11101010
          -709 -892 -98 callgsubr
        </CharString>
        <CharString name="Gcircumflex">
          -25 callsubr
          122 10 callgsubr
          110 176 181 706 -15 163 hintmask 11100101
          110 750 -98 callsubr
          hintmask 00000000
          461 889 -96 callsubr
          hintmask 00011010
          -47 callgsubr
        </CharString>
        <CharString name="Gcommaaccent">
          141 -539 -21 544 130 508 127 656 133 hstemhm
          110 176 496 143 233 163 hintmask 10000100
          710 -104 callsubr
          hintmask 01111010
          -720 847 -98 callgsubr
        </CharString>
        <CharString name="Gdotaccent">
          -25 callsubr
          174 -21 hstemhm
          110 176 420 227 225 163 hintmask 00010100
          812 -92 callgsubr
          hintmask 11101010
          -702 -941 -98 callgsubr
        </CharString>
        <CharString name="H">
          241 21 -21 710 130 682 36 callsubr
          792 169 vstem
          -11 callsubr
          endchar
        </CharString>
        <CharString name="HT">
          endchar
        </CharString>
        <CharString name="Hbar">
          249 21 -21 703 130 252 108 329 36 callsubr
          800 34 callsubr
          703 800 -703 169 1085 215 108 -215 329 -169 -329 -800 329 -169 -329 -195 -108 195 hlineto
          169 -252 rmoveto
          252 800 -252 vlineto
          endchar
        </CharString>
        <CharString name="Hcircumflex">
          241 21 -21 710 130 682 -20 158 -21 68 -21 -53 callgsubr
          45 706 41 169 hintmask 11100101
          -11 callsubr
          hintmask 00000000
          318 117 -96 callsubr
          hintmask 00011010
          -47 callgsubr
        </CharString>
        <CharString name="I">
          -688 -64 callsubr
          hstem
          221 171 vstem
          -67 callsubr
          endchar
        </CharString>
        <CharString name="IJ">
          6 -64 callsubr
          hstemhm
          221 171 514 172 hintmask 11100000
          -67 callsubr
          hintmask 01010000
          353 -1765 -69 callgsubr
          endchar
        </CharString>
        <CharString name="Iacute">
          -688 18 callsubr
          188 458 -425 171 hintmask 11001000
          -67 callsubr
          hintmask 00110000
          39 67 -101 callgsubr
          endchar
        </CharString>
        <CharString name="Ibreve">
          -688 -64 callsubr
          140 132 hstemhm
          -31 677 -425 171 hintmask 11001000
          -67 callsubr
          hintmask 00110000
          87 120 -34 callgsubr
        </CharString>
        <CharString name="Icircumflex">
          -688 -64 callsubr
          158 10 callgsubr
          -45 706 -440 171 hintmask 11000100
          -67 callsubr
          hintmask 00000000
          -162 117 -96 callsubr
          hintmask 00111000
          -47 callgsubr
        </CharString>
        <CharString name="Idieresis">
          -688 -64 callsubr
          188 -5 callsubr
          -45 225 41 171 42 226 hintmask 11000100
          -67 callsubr
          hintmask 00000000
          318 168 -47 callsubr
        </CharString>
        <CharString name="Idotaccent">
          -688 -64 callsubr
          210 -21 hstemhm
          194 227 -200 171 hintmask 11001000
          -67 callsubr
          hintmask 00110000
          79 5 callgsubr
        </CharString>
        <CharString name="Igrave">
          -688 18 callsubr
          -31 458 -206 171 hintmask 11001000
          -67 callsubr
          hintmask 00110000
          135 67 -43 callgsubr
        </CharString>
        <CharString name="Imacron">
          -688 -64 callsubr
          241 124 hstemhm
          38 543 -360 171 hintmask 11001000
          -67 callsubr
          hintmask 00110000
          -183 221 -56 callgsubr
          endchar
        </CharString>
        <CharString name="Iogonek">
          -688 29 callgsubr
          420 -54 callgsubr
          hstemhm
          34 164 23 171 hintmask 00000000
          hintmask 11101000
          221 hmoveto
          20 hlineto
          hintmask 11111000
          38 callsubr
          111 -77 141 hhcurveto
          84 90 20 callgsubr
          -52 -1 rrcurveto
          -83 -70 40 92 -1 hvcurveto
          -2 118 90 95 85 54 rrcurveto
          hintmask 11101000
          21 1522 -171 hlineto
          endchar
        </CharString>
        <CharString name="Itilde">
          -688 -64 callsubr
          165 20 callsubr
          -103 822 -498 171 hintmask 11000100
          -67 callsubr
          hintmask 00000000
          -258 191 rmoveto
          hintmask 00101000
          -50 callgsubr
          hintmask 00111000
          -74 callsubr
          hintmask 00101000
          -9 callgsubr
          endchar
        </CharString>
        <CharString name="J">
          -607 -44 callgsubr
          hstem
          293 172 vstem
          -39 -243 -69 callgsubr
          endchar
        </CharString>
        <CharString name="Jcircumflex">
          -607 -44 callgsubr
          158 10 callgsubr
          24 706 -437 172 hintmask 10001000
          -39 -243 -69 callgsubr
          hintmask 00000000
          167 1882 -96 callsubr
          hintmask 01110000
          -47 callgsubr
        </CharString>
        <CharString name="K">
          63 21 -21 1522 -20 hstem
          206 169 vstem
          206 hmoveto
          -55 callsubr
        </CharString>
        <CharString name="Kcommaaccent">
          63 -14 callgsubr
          1522 -20 -53 callgsubr
          286 143 hintmask 10001000
          589 -104 callsubr
          hintmask 01110000
          -503 97 rmoveto
          -55 callsubr
        </CharString>
        <CharString name="L">
          26 callsubr
          hstem
          206 172 vstem
          11 callsubr
          -25 callgsubr
        </CharString>
        <CharString name="LF">
          endchar
        </CharString>
        <CharString name="Lacute">
          26 callsubr
          179 -21 hstemhm
          171 458 -423 172 hintmask 00110000
          243 -81 callsubr
          hintmask 11001000
          35 -1660 rmoveto
          -25 callgsubr
        </CharString>
        <CharString name="Lcaron">
          -235 0 133 904 648 -163 -20 hstemhm
          206 172 381 150 hintmask 10110000
          11 callsubr
          -19 callgsubr
          hintmask 01001000
          584 -485 -81 callgsubr
        </CharString>
        <CharString name="Lcommaaccent">
          -235 -539 -21 560 133 1389 -20 hstemhm
          206 172 181 143 hintmask 10001000
          487 -104 callsubr
          hintmask 01110000
          -401 97 rmoveto
          -25 callgsubr
        </CharString>
        <CharString name="Ldot">
          35 0 133 597 -21 813 -20 hstemhm
          206 172 532 233 hintmask 01001000
          910 833 rmoveto
          -78 callsubr
          hintmask 10110000
          -704 -833 rmoveto
          -25 callgsubr
        </CharString>
        <CharString name="Lslash">
          26 callsubr
          hstem
          206 172 vstem
          11 callsubr
          801 133 -629 554 hlineto
          469 172 -41 106 -428 -158 rlineto
          715 -172 -779 vlineto
          -194 -71 41 -104 153 56 rlineto
          endchar
        </CharString>
        <CharString name="M">
          624 6 -21 35 -21 22 -21 1397 125 hstemhm
          149 1629 hintmask 00000000
          hintmask 01011000
          149 -1 31 callsubr
          hintmask 10011000
          16 callsubr
          hintmask 00111000
          -26 callgsubr
        </CharString>
        <CharString name="N">
          252 -64 callsubr
          hstem
          205 156 832 155 vstem
          205 hmoveto
          -87 callgsubr
        </CharString>
        <CharString name="Nacute">
          252 18 callsubr
          205 156 306 458 68 155 hintmask 00101000
          739 -81 callsubr
          hintmask 11010100
          -462 -1660 rmoveto
          -87 callgsubr
        </CharString>
        <CharString name="Ncaron">
          252 -64 callsubr
          165 113 -92 -21 hstemhm
          205 156 85 681 66 155 hintmask 00000000
          hintmask 00010100
          714 1667 -58 callgsubr
          hintmask 00100100
          -57 callgsubr
          hintmask 11001010
          -241 -1936 rmoveto
          -87 callgsubr
        </CharString>
        <CharString name="Ncommaaccent">
          252 -14 callgsubr
          1522 -20 hstemhm
          205 156 362 143 327 155 hintmask 10001000
          651 -104 callsubr
          hintmask 01110100
          -566 97 rmoveto
          -87 callgsubr
        </CharString>
        <CharString name="Ntilde">
          252 -64 callsubr
          165 20 callsubr
          205 156 16 822 -6 155 hintmask 00000000
          hintmask 00100100
          443 1713 rmoveto
          hintmask 00110100
          -50 callgsubr
          hintmask 00100100
          -74 callsubr
          hintmask 00110100
          -9 callgsubr
          hintmask 11001010
          -172 -1767 rmoveto
          -87 callgsubr
        </CharString>
        <CharString name="O">
          -57 callsubr
          hstem
          15 callsubr
          1008 171 vstem
          -68 callsubr
          endchar
        </CharString>
        <CharString name="OE">
          756 -16 128 -112 134 586 132 539 131 -113 129 hstemhm
          110 170 814 169 hintmask 00000000
          hintmask 10101110
          110 764 rmoveto
          -9 -454 265 -334 420 8 128 3 95 31 85 56 rrcurveto
          hintmask 01110110
          -74 897 134 -728 586 485 132 -485 539 654 131 -823 vlineto
          hintmask 01101110
          -50 vlineto
          -85 50 -104 18 -89 -2 rrcurveto
          hintmask 10101110
          -403 -13 -294 -258 -9 -503 rrcurveto
          683 -652 rmoveto
          -339 -174 298 345 455 264 199 268 125 92 -35 -51 65 hvcurveto
          -1105 vlineto
          -61 -70 -103 -45 -128 hhcurveto
          endchar
        </CharString>
        <CharString name="Oacute">
          -57 callsubr
          143 -21 43 callsubr
          407 458 143 171 hintmask 00101000
          761 -81 callsubr
          hintmask 11010100
          -578 -891 -106 callgsubr
          endchar
        </CharString>
        <CharString name="Obreve">
          -57 callsubr
          104 132 43 callsubr
          188 677 143 171 hintmask 00101000
          809 1642 -97 callgsubr
          hintmask 11010100
          -698 -873 -106 callgsubr
          endchar
        </CharString>
        <CharString name="Ocircumflex">
          -57 callsubr
          122 -21 68 -21 43 callsubr
          175 706 127 -71 callsubr
          hintmask 00000000
          -224 1525 -96 callsubr
          hintmask 00110100
          -47 callgsubr
        </CharString>
        <CharString name="Odieresis">
          -57 callsubr
          152 -5 callsubr
          111 171 175 9 callgsubr
          128 171 hintmask 00000000
          hintmask 00010010
          1041 -48 callsubr
          hintmask 11001001
          -450 -921 -106 callgsubr
          endchar
        </CharString>
        <CharString name="Ograve">
          -57 callsubr
          143 -21 43 callsubr
          188 458 362 171 hintmask 00101000
          857 1589 -85 callgsubr
          hintmask 11010100
          -746 -820 -106 callgsubr
          endchar
        </CharString>
        <CharString name="Ohungarumlaut">
          -57 callsubr
          122 -21 74 -21 43 callsubr
          181 824 3 -71 callsubr
          hintmask 00110100
          -227 1525 -65 callsubr
        </CharString>
        <CharString name="Omacron">
          -57 callsubr
          205 124 43 callsubr
          257 543 208 171 hintmask 00101000
          539 13 callgsubr
          hintmask 11010100
          -428 -1098 -106 callgsubr
          endchar
        </CharString>
        <CharString name="Omega">
          41 callsubr
          201 170 1046 170 vstem
          212 -72 callsubr
        </CharString>
        <CharString name="Oslash">
          -57 callsubr
          hstem
          15 callsubr
          1008 171 vstem
          399 -167 rmoveto
          96 -27 74 205 64 -19 71 -9 76 1 rlinecurve
          385 8 286 267 10 505 6 343 -137 259 -234 111 81 225 rcurveline
          -96 28 -78 -218 rlineto
          17 -60 -64 9 -69 hhcurveto
          -385 -3 -304 -260 -10 -506 -7 -336 136 -268 236 -117 rrcurveto
          51 140 rmoveto
          -163 110 -84 217 2 243 2 433 229 215 291 3 rrcurveto
          55 51 -8 -16 47 hvcurveto
          -341 -1243 rmoveto
          431 1198 rlineto
          161 -105 82 -217 -246 vvcurveto
          -3 -426 -202 -230 -300 -2 -62 -1 -56 10 -51 19 rrcurveto
          endchar
        </CharString>
        <CharString name="Otilde">
          -57 callsubr
          129 20 callsubr
          111 171 117 822 69 171 hintmask 00000000
          hintmask 00100100
          465 1713 rmoveto
          hintmask 00110100
          -50 callgsubr
          hintmask 00100100
          -74 callsubr
          hintmask 00110100
          -9 callgsubr
          hintmask 11001010
          -288 -998 -106 callgsubr
          endchar
        </CharString>
        <CharString name="P">
          -22 21 -21 527 125 762 122 -14 -20 -53 callgsubr
          649 169 hintmask 00000000
          hintmask 11101100
          206 hmoveto
          -21 callsubr
          hintmask 11011100
          31 callgsubr
          hintmask 11101100
          -13 callgsubr
          hintmask 11011100
          -61 -114 4 8 -62 hvcurveto
          endchar
        </CharString>
        <CharString name="Q">
          269 -287 138 133 130 1295 129 hstem
          110 171 1008 171 vstem
          110 769 rmoveto
          -9 -460 258 -334 420 9 rrcurveto
          7 7 1 7 hhcurveto
          -216 158 167 -56 208 hhcurveto
          74 72 17 21 31 hvcurveto
          123 vlineto
          -18 -43 -83 -5 -52 hhcurveto
          -161 -129 58 100 -83 hvcurveto
          291 77 201 256 9 422 9 466 -257 311 -403 -3 -385 -3 -304 -260 -10 -506 rrcurveto
          674 -655 rmoveto
          -332 -2 -173 298 2 348 2 433 229 215 291 3 320 2 167 -289 -1 -350 -3 -426 -202 -230 -300 -2 rrcurveto
          endchar
        </CharString>
        <CharString name="R">
          1 callsubr
          -53 callgsubr
          640 173 hintmask 00000000
          hintmask 11101100
          206 hmoveto
          -94 callsubr
          hintmask 11011100
          -6 callgsubr
          hintmask 11101100
          -60 callgsubr
          hintmask 11011100
          24 callsubr
          endchar
        </CharString>
        <CharString name="RS">
          endchar
        </CharString>
        <CharString name="Racute">
          1 callsubr
          178 -21 -53 callgsubr
          208 458 -26 173 hintmask 00000000
          hintmask 11100101
          206 hmoveto
          -94 callsubr
          hintmask 11010101
          -6 callgsubr
          hintmask 11100101
          -60 callgsubr
          hintmask 11010101
          24 callsubr
          hintmask 00001010
          280 806 -101 callgsubr
          endchar
        </CharString>
        <CharString name="Rcaron">
          1 callsubr
          164 113 -92 -21 -53 callgsubr
          -14 681 -27 173 -3 callsubr
          hintmask 0000010100000000
          629 1667 -58 callgsubr
          hintmask 0000100100000000
          -57 callgsubr
          -3 callsubr
          -155 -1936 rmoveto
          -94 callsubr
          hintmask 1110001010000000
          -6 callgsubr
          hintmask 1101001010000000
          -60 callgsubr
          hintmask 1110001010000000
          24 callsubr
          endchar
        </CharString>
        <CharString name="Rcommaaccent">
          58 -539 -21 581 13 callsubr
          -53 callgsubr
          286 143 211 173 hintmask 10000010
          589 -104 callsubr
          hintmask 00000000
          -503 97 rmoveto
          -94 callsubr
          hintmask 01110101
          -6 callgsubr
          hintmask 01101101
          -60 callgsubr
          hintmask 01110101
          24 callsubr
          endchar
        </CharString>
        <CharString name="S">
          -23 callgsubr
          hstem
          140 162 600 166 vstem
          136 74 -75 callsubr
        </CharString>
        <CharString name="Sacute">
          -23 callgsubr
          143 35 callgsubr
          196 458 -54 166 hintmask 11010100
          136 74 -104 callgsubr
          hintmask 00101000
          393 1376 -101 callgsubr
          endchar
        </CharString>
        <CharString name="Scaron">
          -23 callgsubr
          150 35 callgsubr
          -25 681 -56 166 hintmask 11010100
          136 74 -104 callgsubr
          hintmask 00000000
          368 1454 -9 callsubr
        </CharString>
        <CharString name="Scedilla">
          -147 -464 119 330 134 1286 133 hstem
          140 162 244 124 232 166 vstem
          136 74 rmoveto
          52 -35 160 -49 187 -5 11 -38 6 -51 -6 -76 -67 callgsubr
          5 91 -11 75 -25 53 rrcurveto
          256 20 173 132 246 vvcurveto
          241 -226 115 -203 97 vhcurveto
          -103 callsubr
          endchar
        </CharString>
        <CharString name="Scircumflex">
          -23 callgsubr
          122 -21 68 35 callgsubr
          -36 706 -70 166 hintmask 11001010
          136 74 -104 callgsubr
          hintmask 00000000
          193 1426 -96 callsubr
          hintmask 00110100
          -47 callgsubr
        </CharString>
        <CharString name="T">
          -22 21 37 callgsubr
          hstem
          553 171 vstem
          553 hmoveto
          -43 callsubr
        </CharString>
        <CharString name="Tbar">
          -22 21 -21 666 112 613 131 hstem
          553 171 vstem
          553 hmoveto
          171 666 301 112 -301 613 498 131 -1160 -131 491 -613 -299 -112 299 hlineto
          endchar
        </CharString>
        <CharString name="Tcaron">
          -22 21 37 callgsubr
          43 callgsubr
          293 681 -421 171 hintmask 00000000
          hintmask 00011000
          561 1667 -1 callgsubr
          hintmask 11000100
          260 -1936 rmoveto
          -43 callsubr
        </CharString>
        <CharString name="Thorn">
          -32 21 -21 292 123 711 122 274 36 callsubr
          641 34 callsubr
          304 hlineto
          -3 48 98 -9 96 hhcurveto
          353 215 169 331 317 -197 139 -320 -93 -111 -12 -6 -89 hvcurveto
          292 -169 vlineto
          169 -1093 rmoveto
          675 vlineto
          63 11 103 9 72 2 rrcurveto
          267 5 136 -107 -234 vvcurveto
          -285 -171 -90 -245 -63 -94 5 9 -68 vhcurveto
          endchar
        </CharString>
        <CharString name="U">
          -58 callsubr
          -4 callsubr
          797 168 hintmask 00000000
          hintmask 10111000
          171 644 -86 callsubr
          hintmask 11011000
          -94 callgsubr
          hintmask 10111000
          -37 callgsubr
          endchar
        </CharString>
        <CharString name="US">
          endchar
        </CharString>
        <CharString name="Uacute">
          -58 callsubr
          178 -21 -4 callsubr
          290 458 49 168 hintmask 00010100
          701 -81 callsubr
          hintmask 00000000
          -458 -1016 -86 callgsubr
        </CharString>
        <CharString name="Ubreve">
          -58 callsubr
          139 132 -4 callsubr
          71 677 49 168 hintmask 00010100
          749 1642 -97 callgsubr
          hintmask 00000000
          -578 -998 -86 callgsubr
        </CharString>
        <CharString name="Ucircumflex">
          -58 callsubr
          157 -21 68 -21 -4 callsubr
          57 706 34 168 hintmask 00000000
          hintmask 10100101
          171 644 -86 callsubr
          hintmask 11000101
          -94 callgsubr
          hintmask 10100101
          -37 callgsubr
          hintmask 00000000
          329 116 -96 callsubr
          hintmask 00011010
          -47 callgsubr
        </CharString>
        <CharString name="Udieresis">
          -58 callsubr
          187 -5 callsubr
          171 168 57 9 callgsubr
          35 168 -3 callsubr
          hintmask 0000100100000000
          980 -17 callsubr
          hintmask 0001000100000000
          -42 callgsubr
          hintmask 0000100100000000
          4 callgsubr
          hintmask 0000101000000000
          -33 callgsubr
          hintmask 0001001000000000
          -42 callsubr
          hintmask 0000101000000000
          3 callsubr
          -3 callsubr
          -329 -1046 -86 callsubr
          hintmask 1010010010000000
          -94 callgsubr
          hintmask 1100010010000000
          -37 callgsubr
          endchar
        </CharString>
        <CharString name="Ugrave">
          -58 callsubr
          178 -21 -4 callsubr
          71 458 268 168 hintmask 00010100
          797 1589 -85 callgsubr
          hintmask 00000000
          -626 -945 -86 callgsubr
        </CharString>
        <CharString name="Uhungarumlaut">
          -58 callsubr
          157 -21 74 -21 -4 callsubr
          64 824 -91 168 hintmask 00000000
          hintmask 10100101
          171 644 -86 callsubr
          hintmask 11000101
          -94 callgsubr
          hintmask 10100101
          -37 callgsubr
          hintmask 00011010
          327 116 -65 callsubr
        </CharString>
        <CharString name="Umacron">
          -58 callsubr
          240 124 -4 callsubr
          140 543 114 168 hintmask 00010100
          479 13 callgsubr
          hintmask 00000000
          -308 -1223 -86 callgsubr
        </CharString>
        <CharString name="Uogonek">
          173 29 callgsubr
          383 133 1405 -20 21 -20 -4 callsubr
          249 165 383 168 hintmask 00000000
          hintmask 11011110
          588 -306 rmoveto
          -136 1 104 -70 137 hhcurveto
          84 97 25 callgsubr
          -25 -58 -15 -52 -1 rrcurveto
          -83 -65 31 93 -1 hvcurveto
          -2 96 98 112 96 77 rrcurveto
          240 71 119 212 352 vvcurveto
          hintmask 11101110
          -94 callgsubr
          hintmask 11011110
          1 839 rlineto
          -169 -879 hlineto
          -428 -1 172 -232 402 hhcurveto
          16 15 0 1 15 hvcurveto
          -101 -69 -103 -120 2 -102 rrcurveto
          endchar
        </CharString>
        <CharString name="Uring">
          173 -16 133 1342 97 -34 -20 21 -20 374 95 -4 callsubr
          99 8 callsubr
          79 168 -3 callsubr
          hintmask 1001010010000000
          171 644 -86 callsubr
          hintmask 1010010010000000
          -94 callgsubr
          hintmask 1001010010000000
          -37 callgsubr
          hintmask 0100101100000000
          573 -64 -56 callsubr
        </CharString>
        <CharString name="Utilde">
          -58 callsubr
          164 20 callsubr
          171 168 -1 822 -24 168 hintmask 00000000
          hintmask 00010010
          404 1713 rmoveto
          hintmask 00011010
          -50 callgsubr
          hintmask 00010010
          -74 callsubr
          hintmask 00011010
          -9 callgsubr
          hintmask 00000000
          -167 -1123 -86 callsubr
          hintmask 10100101
          -94 callgsubr
          hintmask 11000101
          -37 callgsubr
          endchar
        </CharString>
        <CharString name="V">
          30 5 -21 1538 -20 hstem
          31 1270 vstem
          605 -16 rmoveto
          142 hlineto
          554 1538 rlineto
          -178 hlineto
          -370 -1085 -76 -244 -76 244 -391 1085 rlineto
          -179 hlineto
          endchar
        </CharString>
        <CharString name="W">
          -6 callsubr
          hstem
          32 1846 vstem
          444 -16 -92 callsubr
        </CharString>
        <CharString name="Wacute">
          -6 callsubr
          179 37 callsubr
          -1042 458 hintmask 00101000
          908 -81 callsubr
          hintmask 11010000
          -392 -1676 -92 callsubr
        </CharString>
        <CharString name="Wcircumflex">
          -6 callsubr
          158 -21 68 37 callsubr
          -1275 706 hintmask 11001000
          444 -16 -91 callsubr
          hintmask 00000000
          675 117 -96 callsubr
          hintmask 00110100
          -47 callgsubr
        </CharString>
        <CharString name="Wdieresis">
          -6 callsubr
          188 232 -211 37 callsubr
          -1275 9 callgsubr
          hintmask 00000000
          hintmask 00010010
          1187 -48 callsubr
          hintmask 11001000
          -263 -1706 -92 callsubr
        </CharString>
        <CharString name="Wgrave">
          -6 callsubr
          179 37 callsubr
          -1261 458 hintmask 00101000
          1004 1589 -85 callgsubr
          hintmask 11010000
          -560 -1605 -92 callsubr
        </CharString>
        <CharString name="X">
          29 -64 callsubr
          21 -20 hstemhm
          73 1184 hintmask 00000000
          hintmask 10110000
          73 hmoveto
          183 hlineto
          309 503 91 152 94 -152 314 -503 rlineto
          193 hlineto
          -494 758 rlineto
          hintmask 11010000
          480 764 rlineto
          -183 hlineto
          -283 -464 -105 -177 -107 177 rlineto
          hintmask 10110000
          -295 465 -191 -1 484 -740 rlineto
          endchar
        </CharString>
        <CharString name="Y">
          -52 -64 callsubr
          hstem
          548 172 vstem
          -82 callgsubr
          endchar
        </CharString>
        <CharString name="Yacute">
          -52 18 callsubr
          526 458 -436 172 hintmask 11001000
          -82 callgsubr
          hintmask 00110000
          50 1005 -101 callgsubr
          endchar
        </CharString>
        <CharString name="Ycircumflex">
          -52 -64 callsubr
          158 10 callgsubr
          294 706 -452 172 hintmask 11000100
          -82 callgsubr
          hintmask 00000000
          -150 1055 -96 callsubr
          hintmask 00111000
          -47 callgsubr
        </CharString>
        <CharString name="Ydieresis">
          -52 -64 callsubr
          188 -5 callsubr
          294 225 29 172 53 226 hintmask 11000100
          -82 callgsubr
          hintmask 00000000
          330 1106 -47 callsubr
        </CharString>
        <CharString name="Ygrave">
          -52 18 callsubr
          307 458 -217 172 hintmask 11001000
          -82 callgsubr
          hintmask 00110000
          146 1005 -43 callgsubr
        </CharString>
        <CharString name="Z">
          -13 callsubr
          hstemhm
          106 1114 hintmask 00000000
          hintmask 11010000
          106 66 -28 callgsubr
          hintmask 10110000
          38 callgsubr
          hintmask 11010000
          -29 callsubr
          endchar
        </CharString>
        <CharString name="Zacute">
          -13 callsubr
          159 -21 hstemhm
          106 1114 -654 458 hintmask 00000000
          hintmask 11001000
          106 66 -28 callgsubr
          hintmask 10101000
          38 callgsubr
          hintmask 11001000
          -29 callsubr
          hintmask 00010100
          -276 314 -101 callgsubr
          endchar
        </CharString>
        <CharString name="Zcaron">
          -13 callsubr
          43 callgsubr
          106 1114 -875 681 hintmask 00000000
          hintmask 00001010
          613 1667 -58 callgsubr
          hintmask 00010010
          -57 callgsubr
          hintmask 00000000
          -239 -1870 -28 callgsubr
          hintmask 11000100
          38 callgsubr
          hintmask 10100100
          -29 callsubr
          endchar
        </CharString>
        <CharString name="Zdotaccent">
          -13 callsubr
          190 -21 hstemhm
          106 1114 -647 227 hintmask 00010100
          679 -92 callgsubr
          hintmask 00000000
          -573 -1625 -28 callgsubr
          hintmask 11001000
          38 callgsubr
          hintmask 10101000
          -29 callsubr
          endchar
        </CharString>
        <CharString name="a">
          -62 callsubr
          hstem
          110 165 526 166 vstem
          -107 callgsubr
          endchar
        </CharString>
        <CharString name="aacute">
          -62 callsubr
          542 -21 4 callsubr
          186 457 -117 166 hintmask 11101010
          -107 callgsubr
          hintmask 00010100
          272 1001 -10 callgsubr
        </CharString>
        <CharString name="abreve">
          -62 callsubr
          178 130 4 callsubr
          -31 118 439 166 -161 114 hintmask 11101010
          -107 callgsubr
          hintmask 00010101
          307 1021 -96 callgsubr
        </CharString>
        <CharString name="acircumflex">
          -62 callsubr
          145 390 4 callsubr
          -63 737 -148 166 hintmask 11101010
          -107 callgsubr
          hintmask 00010100
          34 988 -40 callsubr
        </CharString>
        <CharString name="acute">
          40 callsubr
          136 1315 -10 callgsubr
        </CharString>
        <CharString name="acute.cap">
          -737 1681 -21 hstem
          56 458 vstem
          128 -81 callsubr
          endchar
        </CharString>
        <CharString name="adieresis">
          -62 callsubr
          4 callsubr
          526 166 vstemhm
          -107 callgsubr
          525 1094 -31 callsubr
        </CharString>
        <CharString name="ae">
          17 callgsubr
          hstemhm
          110 168 523 164 599 157 hintmask 00000000
          hintmask 11001111
          110 301 -65 callgsubr
          hintmask 10110111
          -39 callgsubr
          hintmask 11001111
          -30 callsubr
          hintmask 10101111
          -20 callgsubr
          hintmask 11001111
          -163 -62 88 117 hvcurveto
          endchar
        </CharString>
        <CharString name="aeacute">
          17 callgsubr
          543 -21 hstemhm
          110 168 521 457 -455 164 599 157 hintmask 0000010100000000
          885 1315 -101 callsubr
          -3 callsubr
          -689 -1082 -65 callgsubr
          hintmask 1100101011000000
          -39 callgsubr
          hintmask 1011001011000000
          -30 callsubr
          hintmask 1100101011000000
          -20 callgsubr
          hintmask 1010101011000000
          -163 -62 88 117 hvcurveto
          endchar
        </CharString>
        <CharString name="afii61352">
          1268 21 -21 87 126 232 118 849 120 -10 -20 hstemhm
          206 154 749 154 269 165 606 164 -3 callsubr
          hintmask 1111011110000000
          1532 1007 rmoveto
          -299 -3 126 -263 339 hhcurveto
          270 199 194 336 4 hvcurveto
          300 3 -136 257 -324 hhcurveto
          -268 -205 -187 -338 -5 hvcurveto
          -1326 -1007 rmoveto
          154 1036 hlineto
          -10 247 151 -285 616 -998 rlineto
          146 hlineto
          hintmask 1110111110000000
          1522 -154 -1061 vlineto
          8 -226 -128 257 -634 1030 rlineto
          -149 hlineto
          1491 -516 rmoveto
          hintmask 1111011110000000
          261 120 147 189 -2 vhcurveto
          201 -2 96 -186 -244 vvcurveto
          -1 -263 -113 -157 -191 3 rrcurveto
          hintmask 1110111110000000
          -206 3 -96 195 1 245 rrcurveto
          hintmask 1111011110000000
          -101 -919 rmoveto
          816 126 -816 hlineto
          endchar
        </CharString>
        <CharString name="agrave">
          -62 callsubr
          542 -21 4 callsubr
          -44 457 113 166 hintmask 11101010
          -107 callgsubr
          hintmask 00010100
          328 1001 -90 callsubr
        </CharString>
        <CharString name="amacron">
          -62 callsubr
          295 124 4 callsubr
          37 543 -54 166 hintmask 11101010
          -107 callgsubr
          hintmask 00010100
          37 1138 -56 callgsubr
          endchar
        </CharString>
        <CharString name="ampersand">
          231 -16 103 -103 122 1321 119 hstemhm
          148 157 -7 155 477 143 138 144 hintmask 00000000
          hintmask 01110110
          148 386 rmoveto
          -261 243 -141 361 115 127 37 47 92 vhcurveto
          -56 77 69 -28 95 hhcurveto
          53 32 7 8 28 hvcurveto
          hintmask 10101110
          88 vlineto
          -91 -2 -68 16 -78 55 rrcurveto
          102 87 50 119 152 vvcurveto
          100 -23 80 -12 34 vhcurveto
          -147 hlineto
          12 -29 26 -86 -99 vvcurveto
          -123 -40 -83 -69 -64 vhcurveto
          -110 116 -207 262 -87 119 rrcurveto
          218 99 157 132 242 vvcurveto
          172 -137 160 -235 -243 -160 -131 -218 -158 96 -138 90 -115 vhcurveto
          hintmask 01110110
          -179 -79 -157 -119 -202 vvcurveto
          477 454 rmoveto
          hintmask 01101110
          -102 139 -70 74 147 vvcurveto
          157 108 70 136 149 84 -110 -105 vhcurveto
          hintmask 01110110
          -192 -130 -107 -175 -73 vhcurveto
          -320 -450 rmoveto
          143 117 89 138 65 vhcurveto
          107 -147 187 -242 128 -139 rrcurveto
          -33 -77 -80 -20 -82 hhcurveto
          -310 -128 133 151 hvcurveto
          endchar
        </CharString>
        <CharString name="aogonek">
          -156 29 callgsubr
          383 125 -90 -21 577 107 348 127 4 callsubr
          303 164 59 2 callgsubr
          hintmask 11011111
          -38 callsubr
          145 -119 202 162 129 66 56 62 vhcurveto
          hintmask 10111111
          1 -42 rlineto
          -36 6 -20 14 -10 vhcurveto
          -113 -57 -142 -120 2 -133 rrcurveto
          -136 108 -64 133 84 96 21 41 54 vhcurveto
          46 callgsubr
          -65 26 93 -1 hvcurveto
          hintmask 11011111
          -1 119 125 90 86 55 rrcurveto
          15 823 hlineto
          286 -157 64 -232 -185 -195 -88 -26 -39 vhcurveto
          41 -110 rlineto
          43 60 159 54 116 hhcurveto
          170 96 -32 -184 hvcurveto
          -132 vlineto
          -119 -192 -17 -50 -134 hvcurveto
          -159 -59 -87 -105 -150 vvcurveto
          165 13 rmoveto
          101 59 64 114 43 vhcurveto
          40 97 174 13 82 hhcurveto
          -367 vlineto
          -28 -26 -126 -71 -143 hhcurveto
          -164 -67 85 120 hvcurveto
          endchar
        </CharString>
        <CharString name="approxequal">
          125 307 143 30 142 141 143 30 142 hstemhm
          216 993 hintmask 00000000
          hintmask 01001000
          304 354 -7 callsubr
          hintmask 11001000
          -36 callsubr
          hintmask 01001000
          27 callgsubr
          hintmask 00000000
          88 387 -7 callsubr
          hintmask 00011000
          -36 callsubr
          hintmask 00111000
          27 callgsubr
          endchar
        </CharString>
        <CharString name="aring">
          -62 callsubr
          175 97 334 95 4 callsubr
          -2 8 callsubr
          -91 166 hintmask 1110010010000000
          -107 callgsubr
          hintmask 0001101100000000
          304 1018 -79 callsubr
          endchar
        </CharString>
        <CharString name="asciicircum">
          62 1531 -20 hstem
          189 985 vstem
          189 509 rmoveto
          161 hlineto
          330 839 334 -839 rlineto
          160 hlineto
          -417 1022 rlineto
          -154 hlineto
          endchar
        </CharString>
        <CharString name="asciitilde">
          137 660 143 30 142 hstemhm
          222 993 hintmask 00000000
          hintmask 01100000
          310 707 -7 callsubr
          hintmask 11100000
          -36 callsubr
          hintmask 01100000
          27 callgsubr
          endchar
        </CharString>
        <CharString name="asterisk">
          -75 1154 -20 hstemhm
          542 134 -127 133 hintmask 00000000
          hintmask 10100000
          544 648 rmoveto
          146 1 -16 280 -1 6 -26 154 -2 5 rlinecurve
          133 -104 235 -150 74 129 -250 128 -157 57 156 61 247 133 -72 124 rlineto
          hintmask 11000000
          -238 -152 -128 -108 26 165 10 281 rlineto
          -146 hlineto
          14 -283 rlineto
          2 -6 27 -154 -4 vvcurveto
          -131 104 -237 151 -71 -126 248 -130 6 -1 148 -54 4 -2 rlinecurve
          -157 -60 -246 -134 73 -125 rlineto
          hintmask 10100000
          236 152 128 110 -25 -167 rlineto
          endchar
        </CharString>
        <CharString name="at">
          917 -465 113 350 135 -131 122 832 115 361 112 hstemhm
          224 135 293 143 529 112 427 136 -3 callsubr
          hintmask 1011111110000000
          224 425 rmoveto
          -603 370 -287 480 187 186 49 57 85 vhcurveto
          -30 100 rlineto
          -37 -65 -140 -56 -208 hhcurveto
          -388 -342 217 575 605 406 387 459 343 296 -136 -488 -383 -201 -301 -181 -53 -2 93 214 28 hvcurveto
          27 203 66 276 36 130 -133 -26 rcurveline
          39 -63 -90 18 -92 hhcurveto
          -380 -167 -356 -280 -6 hvcurveto
          hintmask 1101111110000000
          -299 -6 152 -138 135 hhcurveto
          151 143 201 205 97 hvcurveto
          -16 -103 -2 -82 3 -36 rrcurveto
          hintmask 1011111110000000
          -111 6 35 -70 93 hhcurveto
          271 285 299 534 452 -305 257 -441 -572 -457 -439 -680 hvcurveto
          hintmask 1101111110000000
          571 39 rmoveto
          227 5 135 265 255 hhcurveto
          71 94 -22 -49 37 hvcurveto
          -245 -38 -242 -507 -146 hhcurveto
          -113 -62 127 204 4 hvcurveto
          endchar
        </CharString>
        <CharString name="atilde">
          -62 callsubr
          206 -19 callsubr
          110 165 -105 822 -191 166 hintmask 1110001010000000
          -107 callgsubr
          -3 callsubr
          -39 1094 -74 callgsubr
        </CharString>
        <CharString name="b">
          -57 -17 123 919 131 hstem
          184 167 620 170 vstem
          -64 callgsubr
          endchar
        </CharString>
        <CharString name="backslash">
          33 callgsubr
          66 721 vstem
          217 1599 rmoveto
          -151 hlineto
          571 -1962 rlineto
          150 hlineto
          endchar
        </CharString>
        <CharString name="bar">
          -459 -187 1967 hstem
          344 154 vstem
          344 -187 rmoveto
          154 1967 -154 hlineto
          endchar
        </CharString>
        <CharString name="braceleft">
          39 callgsubr
          369 159 vstem
          369 2 rmoveto
          -152 35 -45 122 109 102 8 20 86 vhcurveto
          85 -295 664 vlineto
          29 -12 25 -22 22 vhcurveto
          -34 35 -109 57 -68 28 68 29 107 53 33 32 rrcurveto
          25 21 12 26 33 vvcurveto
          657 295 92 vlineto
          9 -81 -107 11 -109 hhcurveto
          -123 -34 -45 -152 hvcurveto
          -575 vlineto
          -49 -114 -41 -137 -45 vhcurveto
          -110 vlineto
          128 -37 123 -56 -46 vvcurveto
          endchar
        </CharString>
        <CharString name="braceright">
          39 callgsubr
          458 159 vstem
          617 585 rmoveto
          46 123 56 128 37 vhcurveto
          110 vlineto
          -137 45 -114 41 49 vvcurveto
          575 vlineto
          152 -34 45 -123 -109 -107 -11 -9 -81 vhcurveto
          -92 295 -657 vlineto
          -33 12 -26 25 -21 vhcurveto
          33 -32 107 -53 68 -29 -68 -28 -109 -57 -34 -35 rrcurveto
          -22 -22 -12 -25 -29 vvcurveto
          -664 -295 -85 vlineto
          -20 86 102 -8 109 hhcurveto
          122 35 45 152 hvcurveto
          endchar
        </CharString>
        <CharString name="bracketleft">
          39 callsubr
          226 160 vstem
          226 2 rmoveto
          -152 28 -41 122 104 117 7 13 91 vhcurveto
          87 vlineto
          -302 2 rlineto
          1709 302 90 vlineto
          9 -91 -117 11 -104 hhcurveto
          -122 -28 -41 -152 hvcurveto
          endchar
        </CharString>
        <CharString name="bracketright">
          39 callsubr
          455 160 vstem
          615 1544 rmoveto
          152 -28 41 -122 -104 -117 -11 -9 -91 vhcurveto
          -90 302 -1709 vlineto
          -302 -2 rlineto
          -87 vlineto
          -13 91 117 -7 104 hhcurveto
          122 28 41 152 hvcurveto
          endchar
        </CharString>
        <CharString name="breve">
          -526 1335 130 hstem
          49 22 callsubr
          vstem
          387 1335 -96 callgsubr
        </CharString>
        <CharString name="breve.cap">
          -529 1642 132 hstem
          48 677 vstem
          387 1642 -34 callgsubr
        </CharString>
        <CharString name="brokenbar">
          -459 -186 1966 hstem
          344 154 vstem
          344 946 rmoveto
          154 834 -154 hlineto
          -1966 vmoveto
          154 831 -154 hlineto
          endchar
        </CharString>
        <CharString name="bullet">
          -449 548 354 hstem
          255 342 vstem
          418 548 rmoveto
          94 81 81 99 4 hvcurveto
          98 5 -74 76 -94 hhcurveto
          -93 -81 -78 -100 -5 hvcurveto
          -95 -5 74 -81 94 hhcurveto
          endchar
        </CharString>
        <CharString name="c">
          -15 callgsubr
          hstem
          106 162 vstem
          106 553 -100 callgsubr
          endchar
        </CharString>
        <CharString name="cacute">
          -15 callgsubr
          543 -21 hstemhm
          106 162 226 457 hintmask 00101000
          580 1315 -101 callsubr
          hintmask 11010000
          -388 -830 -100 callgsubr
          endchar
        </CharString>
        <CharString name="caron">
          -477 1668 -21 22 -21 hstemhm
          48 737 hintmask 00000000
          hintmask 01100000
          345 1301 rmoveto
          149 hlineto
          hintmask 10100000
          -48 callgsubr
          hintmask 01100000
          -18 callgsubr
          endchar
        </CharString>
        <CharString name="caron.cap">
          -539 1667 113 -92 -21 hstemhm
          49 681 hintmask 00000000
          hintmask 01100000
          317 1667 -58 callgsubr
          hintmask 10100000
          -57 callgsubr
          endchar
        </CharString>
        <CharString name="caronvertical">
          -996 1037 648 hstem
          115 150 vstem
          146 1037 -81 callgsubr
        </CharString>
        <CharString name="ccaron">
          -15 callgsubr
          533 -21 22 -21 hstemhm
          106 162 -22 737 hintmask 00000000
          hintmask 00010100
          543 -49 callgsubr
          hintmask 11001000
          -140 -1116 -100 callgsubr
          endchar
        </CharString>
        <CharString name="ccedilla">
          -289 -464 119 330 125 917 129 hstem
          106 162 272 121 vstem
          304 0 callsubr
          74 -24 53 131 6 118 41 67 61 -35 96 rcurveline
          -32 -49 -107 -47 -132 hhcurveto
          -194 -170 157 319 8 hvcurveto
          298 8 172 143 187 hhcurveto
          107 94 -21 -41 56 hvcurveto
          29 132 rlineto
          27 -40 -103 32 -134 hhcurveto
          -348 -191 -258 -345 1 hvcurveto
          -299 151 -230 267 -35 vhcurveto
          13 -38 7 -52 -7 -79 rrcurveto
          -118 -6 -57 -47 -80 hhcurveto
          -37 -36 7 11 -17 hvcurveto
          endchar
        </CharString>
        <CharString name="ccircumflex">
          -15 callgsubr
          146 390 hstemhm
          106 162 -23 737 hintmask 00101000
          342 1302 -97 callsubr
          hintmask 11010000
          -139 -792 -100 callgsubr
          endchar
        </CharString>
        <CharString name="cdotaccent">
          -15 callgsubr
          45 callgsubr
          106 162 232 230 hintmask 11010000
          106 553 -100 callgsubr
          hintmask 00101000
          501 835 -89 callgsubr
        </CharString>
        <CharString name="cedilla">
          -833 -464 119 hstem
          293 124 vstem
          268 21 rmoveto
          19 -41 15 -57 -9 -103 -67 callgsubr
          6 113 -18 89 -39 51 -34 4 rcurveline
          endchar
        </CharString>
        <CharString name="cent">
          -107 -14 124 917 127 hstemhm
          170 162 267 114 -70 114 hintmask 00000000
          hintmask 11110000
          170 553 rmoveto
          -303 155 -233 276 -29 vhcurveto
          -4 -204 rlineto
          115 hlineto
          3 202 123 9 110 40 63 58 rlinecurve
          -35 96 rlineto
          -32 -49 -107 -47 -132 hhcurveto
          -194 -170 157 319 8 hvcurveto
          298 8 172 143 187 hhcurveto
          107 94 -21 -41 56 hvcurveto
          29 132 rlineto
          hintmask 11101000
          -35 24 -85 27 -111 6 6 219 rcurveline
          -114 hlineto
          -6 -221 rlineto
          hintmask 11110000
          -305 -32 -166 -245 1 -322 rrcurveto
          endchar
        </CharString>
        <CharString name="circumflex">
          -468 1302 390 hstem
          48 737 vstem
          145 1302 -40 callsubr
        </CharString>
        <CharString name="circumflex.cap">
          -497 1660 -21 66 -21 23 -21 hstemhm
          49 706 hintmask 00000000
          hintmask 10110000
          153 1639 -96 callsubr
          hintmask 11010000
          -47 callgsubr
        </CharString>
        <CharString name="colon">
          -700 5 -21 845 -21 hstemhm
          184 233 hintmask 10100000
          184 108 rmoveto
          -78 callsubr
          hintmask 01100000
          824 vmoveto
          -78 callsubr
          endchar
        </CharString>
        <CharString name="comma">
          -700 -478 -21 hstem
          307 158 vstem
          201 -34 callsubr
          endchar
        </CharString>
        <CharString name="commaaccent">
          -966 -539 -21 hstem
          129 143 vstem
          57 -104 callsubr
          endchar
        </CharString>
        <CharString name="copyright">
          832 95 99 287 120 730 120 283 97 hstem
          204 109 314 148 1044 -60 callsubr
          314 -4 rmoveto
          -256 169 -224 275 132 113 41 49 61 vhcurveto
          -35 96 rlineto
          -30 -52 -88 -36 -111 hhcurveto
          -193 -123 149 222 211 121 148 206 107 71 -32 -36 51 hvcurveto
          26 124 rlineto
          25 -36 -76 39 -130 hhcurveto
          -316 -172 -210 -280 hvcurveto
          endchar
        </CharString>
        <CharString name="currency">
          229 310 125 632 125 hstem
          322 135 613 136 vstem
          216 277 rmoveto
          97 -97 203 205 rlineto
          -48 71 85 -27 91 hhcurveto
          94 88 29 49 71 hvcurveto
          202 -202 96 96 -200 200 rlineto
          58 74 34 93 102 vvcurveto
          101 -34 93 -57 74 vhcurveto
          203 203 -97 96 -205 -204 rlineto
          49 -72 -87 29 -94 hhcurveto
          -92 -86 -28 -48 -71 hvcurveto
          -203 205 -95 -98 199 -200 rlineto
          -58 -74 -35 -95 -103 vvcurveto
          -104 35 -95 59 -75 vhcurveto
          41 274 rmoveto
          174 138 142 169 170 136 -142 -174 -173 -136 -143 -170 -169 -138 143 173 vhcurveto
          endchar
        </CharString>
        <CharString name="d">
          -62 2 callsubr
          hstemhm
          102 171 619 -14 callsubr
          hintmask 10111000
          -45 callgsubr
          hintmask 01111000
          -39 callsubr
          hintmask 10111000
          -83 callgsubr
          endchar
        </CharString>
        <CharString name="dagger">
          -275 1148 122 hstemhm
          436 153 -147 141 hintmask 00000000
          hintmask 10100000
          446 200 rmoveto
          133 hlineto
          9 949 312 -2 rlineto
          125 vlineto
          hintmask 11000000
          -312 -3 3 389 rlineto
          -156 hlineto
          3 -389 -311 3 -1 -125 rlineto
          hintmask 10100000
          312 2 rlineto
          endchar
        </CharString>
        <CharString name="daggerdbl">
          -275 498 122 528 122 hstemhm
          435 139 -137 150 -144 138 -132 140 hintmask 00000000
          hintmask 11001000
          126 497 rmoveto
          hintmask 11000100
          311 3 12 -856 rlineto
          hintmask 11100000
          126 hlineto
          hintmask 11001000
          12 856 312 -3 rlineto
          125 vlineto
          hintmask 11010000
          -312 -2 rlineto
          529 vlineto
          313 -2 rlineto
          125 vlineto
          -313 -3 4 389 rlineto
          -157 hlineto
          3 -389 -310 3 -1 -125 311 2 rlineto
          -529 vlineto
          -311 2 rlineto
          endchar
        </CharString>
        <CharString name="dcaron">
          278 2 callsubr
          -119 648 hstemhm
          102 171 619 167 294 150 hintmask 00000000
          hintmask 10101100
          -45 callgsubr
          hintmask 01101100
          -39 callsubr
          hintmask 10101100
          -83 callgsubr
          hintmask 00010010
          787 922 -81 callgsubr
        </CharString>
        <CharString name="dcroat">
          -62 2 callsubr
          169 108 hstemhm
          102 171 619 -14 callsubr
          hintmask 10111100
          -45 callgsubr
          hintmask 01111100
          -69 vlineto
          -63 34 -6 51 vhcurveto
          72 1337 155 108 -155 231 -167 -231 -294 -108 294 -139 hlineto
          3 -68 rlineto
          20 -52 -77 18 -92 hhcurveto
          hintmask 10111100
          -83 callgsubr
          endchar
        </CharString>
        <CharString name="degree">
          -392 947 103 455 104 hstem
          121 111 445 110 vstem
          454 947 rmoveto
          189 144 139 192 189 -147 142 -186 -188 -145 -140 -191 -188 149 -143 184 hvcurveto
          103 vmoveto
          -123 -99 99 129 131 97 96 125 124 99 -98 -129 -132 -97 -96 -126 hvcurveto
          endchar
        </CharString>
        <CharString name="dieresis">
          -519 1408 225 hstemhm
          57 21 callgsubr
          hintmask 00000000
          hintmask 11100000
          608 1408 -31 callsubr
        </CharString>
        <CharString name="dieresis.cap">
          -496 1690 -5 callsubr
          50 9 callgsubr
          hintmask 00000000
          hintmask 01010000
          634 -17 callsubr
          hintmask 10010000
          -42 callgsubr
          hintmask 01010000
          4 callgsubr
          hintmask 01100000
          -33 callgsubr
          hintmask 10100000
          -42 callsubr
          hintmask 01100000
          3 callsubr
          endchar
        </CharString>
        <CharString name="divide">
          92 261 240 208 130 219 241 hstemhm
          587 232 hintmask 00000000
          hintmask 11110000
          694 1058 rmoveto
          65 60 49 79 66 -35 47 -73 -63 -61 -53 -76 -72 48 -40 59 hvcurveto
          -462 -349 rmoveto
          929 130 -929 hlineto
          354 -466 rmoveto
          -72 49 -40 58 66 59 49 79 65 -35 47 -73 -63 -61 -53 -75 vhcurveto
          endchar
        </CharString>
        <CharString name="dollar">
          81 -14 133 1286 132 -3 -20 hstemhm
          242 162 206 124 -79 124 225 2 callgsubr
          hintmask 11011010
          238 74 rmoveto
          49 -34 149 -45 175 -9 -2 -221 rcurveline
          124 hlineto
          2 221 rlineto
          259 18 176 133 248 vvcurveto
          241 -226 115 -203 97 vhcurveto
          -216 104 -121 71 171 vvcurveto
          152 -1 167 69 162 hhcurveto
          157 95 -34 -48 74 hvcurveto
          35 133 rlineto
          hintmask 11010110
          -50 33 -100 41 -165 7 3 215 rcurveline
          -124 hlineto
          hintmask 10110110
          -4 -218 rlineto
          -207 -21 -204 -103 -248 vvcurveto
          -225 200 -141 198 -90 vhcurveto
          213 -97 151 -69 -174 vvcurveto
          -168 -134 -79 -211 -144 -155 44 50 -81 vhcurveto
          endchar
        </CharString>
        <CharString name="dotaccent">
          -971 1388 242 hstem
          50 230 vstem
          157 1388 -89 callgsubr
        </CharString>
        <CharString name="dotaccent.cap">
          -971 1712 -21 hstem
          51 227 vstem
          157 -92 callgsubr
          endchar
        </CharString>
        <CharString name="dotlessi">
          -54 callsubr
          hstem
          211 166 vstem
          211 hmoveto
          23 callsubr
        </CharString>
        <CharString name="dotlessj">
          6 callsubr
          hstemhm
          211 2 callgsubr
          hintmask 10110000
          211 -28 callsubr
          hintmask 01110000
          -124 vlineto
          hintmask 10110000
          -49 callsubr
          endchar
        </CharString>
        <CharString name="e">
          -66 callsubr
          hstem
          104 163 600 157 vstem
          104 565 -100 callsubr
        </CharString>
        <CharString name="eacute">
          -66 callsubr
          543 -21 hstemhm
          104 163 215 457 -72 157 hintmask 00010100
          568 1315 -101 callsubr
          hintmask 11101010
          -378 -818 -100 callsubr
        </CharString>
        <CharString name="ebreve">
          -66 callsubr
          179 130 hstemhm
          104 163 -2 22 callsubr
          -74 157 hintmask 11101001
          104 565 -107 callsubr
          hintmask 00010110
          -264 670 -96 callgsubr
        </CharString>
        <CharString name="ecaron">
          -66 callsubr
          533 -21 22 -21 hstemhm
          104 163 -33 737 -104 157 hintmask 00000000
          hintmask 00001010
          531 1322 rmoveto
          149 hlineto
          hintmask 00010010
          -48 callgsubr
          hintmask 00001010
          -18 callgsubr
          hintmask 11100101
          -130 -1104 -100 callsubr
        </CharString>
        <CharString name="ecircumflex">
          -66 callsubr
          146 390 hstemhm
          104 163 -34 737 -103 157 hintmask 00010100
          330 1302 -97 callsubr
          hintmask 11101010
          -129 -780 -100 callsubr
        </CharString>
        <CharString name="edieresis">
          -66 callsubr
          252 225 hstemhm
          104 163 3 21 callgsubr
          -71 157 hintmask 00000000
          hintmask 00010110
          821 1408 -93 callgsubr
          hintmask 11101001
          -266 -843 -100 callsubr
        </CharString>
        <CharString name="edotaccent">
          -66 callsubr
          45 callgsubr
          104 163 221 230 149 157 hintmask 11101010
          104 565 -107 callsubr
          hintmask 00010100
          -272 723 -89 callgsubr
        </CharString>
        <CharString name="egrave">
          -66 callsubr
          543 -21 hstemhm
          104 163 -15 457 158 157 hintmask 11101010
          104 565 -107 callsubr
          hintmask 00010100
          -243 650 -90 callsubr
        </CharString>
        <CharString name="eight">
          -4 -16 118 1346 117 hstemhm
          157 161 -101 154 578 153 -104 165 hintmask 00000000
          hintmask 11100100
          157 385 rmoveto
          -289 264 -112 246 260 238 129 278 -2 vhcurveto
          -2 195 -173 107 -185 97 rrcurveto
          hintmask 11011000
          205 97 94 176 154 vvcurveto
          211 -180 137 -251 -242 -212 -120 -248 -194 123 -112 148 -87 vhcurveto
          hintmask 11100100
          -227 -101 -104 -159 -159 vvcurveto
          hintmask 11011000
          531 466 rmoveto
          -169 91 -148 97 168 vvcurveto
          153 129 88 166 180 107 -105 -148 -4 vhcurveto
          -2 -155 -111 -138 -148 -51 rrcurveto
          hintmask 11100100
          -370 -453 rmoveto
          157 126 127 159 59 vhcurveto
          197 -100 198 -84 -186 vvcurveto
          -169 -149 -100 -175 -232 -124 112 184 vhcurveto
          endchar
        </CharString>
        <CharString name="ellipsis">
          682 -16 260 hstemhm
          214 233 1089 233 hintmask 00000000
          hintmask 11100000
          1536 106 rmoveto
          -71 2 50 -51 59 hhcurveto
          65 58 60 79 -1 hvcurveto
          64 -2 -37 57 -72 hhcurveto
          -64 18 callgsubr
          -3 hvcurveto
          64 -1 -37 57 -73 hhcurveto
          -63 18 callgsubr
          -2 hvcurveto
          64 -2 -37 57 -72 hhcurveto
          -64 -59 -63 -75 1 hvcurveto
          endchar
        </CharString>
        <CharString name="emacron">
          -66 callsubr
          296 124 hstemhm
          104 163 66 543 -9 157 hintmask 11101010
          104 565 -107 callsubr
          hintmask 00010100
          -534 787 -56 callgsubr
          endchar
        </CharString>
        <CharString name="emdash">
          1042 705 135 hstem
          240 1863 vstem
          240 705 rmoveto
          1863 135 -1863 hlineto
          endchar
        </CharString>
        <CharString name="endash">
          391 705 135 hstem
          240 1212 vstem
          240 705 rmoveto
          1212 135 -1212 hlineto
          endchar
        </CharString>
        <CharString name="eng">
          -7 -507 118 -83 -21 514 44 callsubr
          -18 -20 hstemhm
          193 168 581 2 callgsubr
          hintmask 10110110
          193 hmoveto
          168 879 hlineto
          87 68 149 67 109 3 rrcurveto
          174 6 62 -72 -247 vvcurveto
          -740 vlineto
          -258 -50 -94 -135 -1 vhcurveto
          -29 -59 5 7 -19 hvcurveto
          hintmask 01110110
          -116 vlineto
          hintmask 10110110
          -7 16 87 -7 38 hhcurveto
          214 103 184 309 hvcurveto
          722 vlineto
          336 -90 118 -245 -5 vhcurveto
          -170 -5 -178 -98 -83 -61 rrcurveto
          hintmask 10101110
          146 -149 vlineto
          endchar
        </CharString>
        <CharString name="eogonek">
          -173 29 callgsubr
          383 126 443 112 372 119 hstem
          104 163 261 165 174 157 vstem
          104 565 rmoveto
          -365 177 -216 320 46 48 5 8 48 vhcurveto
          -109 -71 -108 -130 2 -108 rrcurveto
          -136 1 110 -64 133 hhcurveto
          85 96 20 callgsubr
          -51 -1 rrcurveto
          -83 -68 26 93 -1 hvcurveto
          -2 123 159 157 113 70 -2 1 rcurveline
          25 18 -32 97 rlineto
          -39 -60 -147 -37 -103 hhcurveto
          -211 -155 110 293 -10 hvcurveto
          -1 13 0 14 13 vvcurveto
          748 hlineto
          9 47 0 55 73 vvcurveto
          -7 260 -161 171 -241 -3 rrcurveto
          -328 -4 -183 -244 -343 vvcurveto
          170 100 rmoveto
          263 30 132 109 169 hhcurveto
          207 67 -163 -209 -12 hvcurveto
          endchar
        </CharString>
        <CharString name="equal">
          30 callsubr
          241 986 rmoveto
          915 128 -915 hlineto
          -686 vmoveto
          915 127 -915 hlineto
          endchar
        </CharString>
        <CharString name="estimated">
          82 -16 98 545 110 520 99 hstem
          109 241 701 223 vstem
          350 259 rmoveto
          368 913 vlineto
          11 51 0 68 86 vvcurveto
          -11 329 -237 200 -290 -5 rrcurveto
          -417 -7 -210 -286 -392 vvcurveto
          -430 229 -257 394 149 197 43 61 85 vhcurveto
          -37 94 rlineto
          -43 -70 -159 -57 -148 hhcurveto
          -171 -141 53 124 -87 hvcurveto
          478 vmoveto
          335 vlineto
          126 85 135 59 156 hhcurveto
          163 101 -56 -81 61 hvcurveto
          -383 vlineto
          endchar
        </CharString>
        <CharString name="eth">
          -94 -27 115 942 125 391 -20 157 -21 hstem
          109 166 674 167 vstem
          109 557 rmoveto
          -362 200 -227 307 5 vhcurveto
          294 4 206 205 430 vvcurveto
          404 -165 336 -289 215 vhcurveto
          -9 6 rlineto
          56 59 79 92 0 vvcurveto
          -90 69 rlineto
          0 -82 -101 -53 -58 vhcurveto
          -80 47 -100 48 -98 30 -40 -97 rcurveline
          72 -23 89 -45 76 -48 -141 -153 rcurveline
          89 -70 141 160 141 -109 113 -154 59 -177 rlinecurve
          -67 69 -93 42 -104 1 rrcurveto
          -298 1 -213 -221 -378 vvcurveto
          166 6 rmoveto
          282 129 185 222 172 114 -82 -97 28 vhcurveto
          11 -98 -2 -98 -81 vvcurveto
          -332 -156 -154 -171 -202 -145 171 304 vhcurveto
          endchar
        </CharString>
        <CharString name="exclam">
          -700 5 -21 hstem
          221 167 vstem
          232 473 -61 callsubr
          endchar
        </CharString>
        <CharString name="exclamdbl">
          37 5 -21 hstemhm
          251 167 504 167 hintmask 11000000
          262 473 -61 callsubr
          hintmask 10100000
          719 365 -61 callsubr
          endchar
        </CharString>
        <CharString name="exclamdown">
          -700 1339 21 hstem
          213 167 vstem
          369 871 rmoveto
          -148 hlineto
          -18 -1307 rlineto
          187 hlineto
          27 1672 rmoveto
          74 -2 -50 50 -59 hhcurveto
          -66 -58 -59 -82 2 hvcurveto
          -68 2 37 -56 73 hhcurveto
          63 60 62 79 -2 hvcurveto
          endchar
        </CharString>
        <CharString name="f">
          -500 19 callgsubr
          hstem
          28 callgsubr
          vstem
          272 hmoveto
          -105 callgsubr
          endchar
        </CharString>
        <CharString name="f_f">
          301 16 callgsubr
          hintmask 11110000
          272 hmoveto
          -105 callgsubr
          hintmask 11101000
          801 -1014 -103 callgsubr
          endchar
        </CharString>
        <CharString name="f_f_i">
          -91 callgsubr
        </CharString>
        <CharString name="f_f_l">
          895 16 callgsubr
          576 167 hintmask 10000100
          1816 -17 callgsubr
          hintmask 11110000
          -1544 -1664 -103 callgsubr
          hintmask 11101000
          801 -1014 -103 callgsubr
          endchar
        </CharString>
        <CharString name="f_i">
          88 -23 callsubr
          -1 -20 269 242 -82 42 callsubr
          545 -15 callsubr
          hintmask 10100001
          1012 hmoveto
          -66 callgsubr
          hintmask 00010010
          -78 callgsubr
          hintmask 11001100
          -819 -52 callsubr
          endchar
        </CharString>
        <CharString name="f_l">
          94 19 callgsubr
          hstemhm
          272 167 576 167 hintmask 10001000
          1015 -17 callgsubr
          hintmask 11110000
          -743 -1664 -103 callgsubr
          endchar
        </CharString>
        <CharString name="ffi_dflt">
          -91 callgsubr
        </CharString>
        <CharString name="fi_trk">
          88 -23 callsubr
          -1 -20 269 242 -82 42 callsubr
          545 -15 callsubr
          hintmask 10100001
          1012 hmoveto
          -66 callgsubr
          hintmask 00010010
          -78 callgsubr
          hintmask 11001100
          -819 -52 callsubr
          endchar
        </CharString>
        <CharString name="five">
          -79 -348 121 779 125 431 144 hstem
          902 169 vstem
          204 -222 rmoveto
          -1 -113 rlineto
          -11 35 56 -2 33 hhcurveto
          473 4 271 298 284 vvcurveto
          271 -158 168 -282 -89 -89 -16 -30 -99 vhcurveto
          49 477 rlineto
          603 hlineto
          16 144 rlineto
          -750 hlineto
          -61 -736 41 -25 108 40 107 22 91 -1 rlinecurve
          226 118 -107 -218 -253 -265 -202 -353 1 hvcurveto
          -33 -20 2 3 -27 hvcurveto
          endchar
        </CharString>
        <CharString name="florin">
          -182 1013 128 410 135 4 -21 hstemhm
          219 828 hintmask 00000000
          hintmask 10110000
          325 -356 rmoveto
          164 hlineto
          113 1369 rlineto
          321 hlineto
          9 128 rlineto
          -320 hlineto
          14 115 rlineto
          hintmask 11010000
          218 24 101 77 128 hhcurveto
          89 53 -9 -10 16 hvcurveto
          hintmask 10110000
          10 137 rlineto
          hintmask 11010000
          6 -14 -44 11 -89 hhcurveto
          -219 -181 -131 -346 -42 hvcurveto
          -8 -68 -225 -40 -6 -88 rlineto
          221 hlineto
          endchar
        </CharString>
        <CharString name="four">
          13 0 129 hstem
          827 166 vstem
          104 79 rmoveto
          41 -79 rlineto
          682 -376 166 376 251 129 -251 487 -153 hlineto
          -13 -487 rlineto
          -537 hlineto
          67 115 44 86 400 793 51 120 rlinecurve
          -104 64 rlineto
          -59 hlineto
          -51 -122 -487 -1014 -47 -92 rrcurveto
          endchar
        </CharString>
        <CharString name="foursuperior">
          -150 875 116 hstem
          693 156 vstem
          153 875 -68 callgsubr
          endchar
        </CharString>
        <CharString name="fraction">
          -275 21 -21 1530 -20 hstem
          160 691 vstem
          160 hmoveto
          -20 callsubr
          endchar
        </CharString>
        <CharString name="g">
          -59 callgsubr
          -35 callgsubr
          515 166 -39 160 -3 callsubr
          hintmask 1111010001000000
          121 -194 -75 callgsubr
          hintmask 1111000110000000
          -87 callsubr
          hintmask 1110101010000000
          -71 callgsubr
          hintmask 1111000110000000
          -35 callsubr
          hintmask 1111010001000000
          7 callsubr
          hintmask 1110101010000000
          -80 callsubr
          hintmask 1111010001000000
          -84 callgsubr
          endchar
        </CharString>
        <CharString name="gbreve">
          -59 callgsubr
          179 130 -35 callgsubr
          -79 22 callsubr
          -82 166 -39 160 -3 callsubr
          hintmask 1111001000001000
          121 -194 -75 callgsubr
          hintmask 1111000010010000
          -87 callsubr
          hintmask 1110100100010000
          -71 callgsubr
          hintmask 1111000010010000
          -35 callsubr
          hintmask 1111001000001000
          7 callsubr
          hintmask 1110100100010000
          -80 callsubr
          hintmask 1111001000001000
          -84 callgsubr
          hintmask 0000010001100000
          322 1509 -96 callgsubr
        </CharString>
        <CharString name="gcircumflex">
          -59 callgsubr
          146 390 -35 callgsubr
          -112 737 -110 166 -39 160 hintmask 0000010001000000
          332 1302 -97 callsubr
          -3 callsubr
          -114 -1539 -93 callsubr
        </CharString>
        <CharString name="gcommaaccent">
          -59 callgsubr
          175 478 -35 callgsubr
          134 143 238 166 -39 160 hintmask 0000010001000000
          582 1331 rmoveto
          119 69 rlineto
          38 vlineto
          -40 9 -37 61 70 vvcurveto
          83 36 71 32 24 vhcurveto
          21 vlineto
          -57 32 rlineto
          -62 -26 -92 -103 -142 vvcurveto
          -105 47 -81 54 -21 vhcurveto
          -3 callsubr
          -461 -1525 -93 callsubr
        </CharString>
        <CharString name="gdotaccent">
          -59 callgsubr
          232 242 -35 callgsubr
          144 230 141 166 -39 160 -3 callsubr
          hintmask 1111001000010000
          121 -194 -75 callgsubr
          hintmask 1111000010100000
          -87 callsubr
          hintmask 1110100100100000
          -71 callgsubr
          hintmask 1111000010100000
          -35 callsubr
          hintmask 1111001000010000
          7 callsubr
          hintmask 1110100100100000
          -80 callsubr
          hintmask 1111001000010000
          -84 callgsubr
          hintmask 0000010001000000
          314 1562 -89 callgsubr
        </CharString>
        <CharString name="germandbls">
          -30 -16 118 -81 -21 1460 119 hstemhm
          191 167 343 155 60 166 -24 169 hintmask 00000000
          hintmask 01111100
          191 hmoveto
          167 975 hlineto
          354 139 131 192 122 105 -46 -127 vhcurveto
          -199 -215 -52 -181 vvcurveto
          hintmask 10111010
          -289 356 -25 1 -248 vhcurveto
          -133 -108 -58 -111 -120 -79 27 20 -38 vhcurveto
          -132 vlineto
          -17 40 91 -16 100 hhcurveto
          185 209 87 240 hvcurveto
          332 -371 27 204 vvcurveto
          hintmask 10111100
          141 226 57 236 vvcurveto
          185 -178 86 -187 -249 -211 -132 -304 -53 vhcurveto
          -160 -30 rlineto
          -99 147 -28 vlineto
          endchar
        </CharString>
        <CharString name="grave">
          40 callsubr
          422 1315 -90 callsubr
        </CharString>
        <CharString name="grave.cap">
          -737 1681 -21 hstem
          50 458 vstem
          437 1589 -43 callgsubr
        </CharString>
        <CharString name="greater">
          67 254 1039 hstem
          235 962 vstem
          1197 834 rmoveto
          -962 459 rlineto
          -156 vlineto
          789 -364 -789 -360 rlineto
          -159 vlineto
          962 458 rlineto
          endchar
        </CharString>
        <CharString name="greaterequal">
          67 0 124 hstem
          230 965 vstem
          1195 834 rmoveto
          -965 448 rlineto
          -154 vlineto
          798 -355 -798 -355 rlineto
          -155 vlineto
          965 448 rlineto
          -587 vmoveto
          -965 -124 965 hlineto
          endchar
        </CharString>
        <CharString name="guillemotleft">
          630 106 1025 hstemhm
          245 697 29 697 hintmask 11000000
          245 542 -36 callgsubr
          hintmask 10100000
          726 -141 -36 callgsubr
          endchar
        </CharString>
        <CharString name="guillemotright">
          630 106 1025 hstemhm
          262 697 29 697 hintmask 11000000
          959 683 -26 callsubr
          653 436 rlineto
          726 141 -26 callsubr
          rlineto
          hintmask 10100000
          653 436 rlineto
          endchar
        </CharString>
        <CharString name="guilsinglleft">
          -97 106 1025 hstem
          245 697 vstem
          245 542 -36 callgsubr
          endchar
        </CharString>
        <CharString name="guilsinglright">
          -97 106 1025 hstem
          262 697 vstem
          959 683 -26 callsubr
          653 436 rlineto
          endchar
        </CharString>
        <CharString name="h">
          8 21 callsubr
          hstem
          9 callsubr
          596 167 vstem
          -72 callgsubr
          507 -167 vlineto
          endchar
        </CharString>
        <CharString name="hbar">
          8 21 callsubr
          152 101 hstem
          9 callsubr
          596 167 vstem
          -72 callgsubr
          152 271 101 -271 254 -167 -254 -149 -101 149 vlineto
          endchar
        </CharString>
        <CharString name="hcircumflex">
          8 21 callsubr
          503 -21 68 -21 14 callsubr
          47 706 -157 167 hintmask 11001010
          -72 callgsubr
          507 -167 vlineto
          hintmask 00000000
          318 -25 -96 callsubr
          hintmask 00110100
          -47 callgsubr
        </CharString>
        <CharString name="hungarumlaut">
          -284 1333 463 hstem
          47 883 vstem
          126 1333 -70 callsubr
          endchar
        </CharString>
        <CharString name="hungarumlaut.cap">
          -346 1660 -21 74 -21 hstem
          54 824 vstem
          149 1639 -65 callsubr
        </CharString>
        <CharString name="hyphen">
          -2 callsubr
        </CharString>
        <CharString name="i">
          -76 callsubr
        </CharString>
        <CharString name="i.cy">
          -76 callsubr
        </CharString>
        <CharString name="i.dot">
          -76 callsubr
        </CharString>
        <CharString name="i.uc">
          -688 -64 callsubr
          210 -21 hstemhm
          200 227 -206 171 hintmask 11001000
          -67 callsubr
          hintmask 00110000
          85 5 callgsubr
        </CharString>
        <CharString name="iacute">
          -54 callsubr
          580 -21 hstemhm
          172 457 -418 166 hintmask 00110000
          258 1315 -101 callsubr
          hintmask 11001000
          39 -1383 17 callsubr
        </CharString>
        <CharString name="ibreve">
          -54 callsubr
          216 130 hstemhm
          -45 118 138 166 140 114 hintmask 11001000
          211 hmoveto
          -66 callgsubr
          hintmask 00110100
          82 196 -96 callgsubr
        </CharString>
        <CharString name="icircumflex">
          -54 callsubr
          183 390 hstemhm
          -77 737 -449 166 hintmask 00110000
          20 1302 -97 callsubr
          hintmask 11001000
          288 -1345 17 callsubr
        </CharString>
        <CharString name="idieresis">
          -54 callsubr
          289 225 hstemhm
          -17 216 12 166 12 217 hintmask 00000000
          hintmask 00110100
          489 1408 rmoveto
          62 55 46 74 62 -30 43 -69 -60 -58 -21 callgsubr
          -406 hmoveto
          61 55 46 74 62 -29 43 -69 -59 -59 -21 callgsubr
          hintmask 11001000
          128 -1408 17 callsubr
        </CharString>
        <CharString name="igrave">
          -54 callsubr
          580 -21 hstemhm
          -58 457 -188 166 hintmask 11001000
          211 hmoveto
          -66 callgsubr
          hintmask 00110000
          103 176 -90 callsubr
        </CharString>
        <CharString name="ij">
          -151 -507 118 -84 -21 515 -32 callgsubr
          269 30 callgsubr
          183 -15 callsubr
          392 230 -200 166 -3 callsubr
          hintmask 1001000010000000
          799 -28 callsubr
          hintmask 0101000010000000
          -124 vlineto
          hintmask 1001000010000000
          -49 callsubr
          hintmask 0011001000000000
          -588 -1139 rmoveto
          -66 callgsubr
          hintmask 0000110000000000
          -78 callgsubr
          hintmask 0000100100000000
          586 hmoveto
          64 59 51 78 65 -35 48 -72 -61 -62 -54 -74 -72 49 -42 58 hvcurveto
          endchar
        </CharString>
        <CharString name="imacron">
          -54 callsubr
          333 124 hstemhm
          23 543 -355 166 hintmask 11001000
          211 hmoveto
          -66 callgsubr
          hintmask 00110000
          -188 313 -56 callgsubr
          endchar
        </CharString>
        <CharString name="infinity">
          541 229 116 534 125 hstem
          103 151 1334 151 vstem
          510 230 rmoveto
          181 2 142 130 89 134 rrcurveto
          -135 91 114 -132 197 hhcurveto
          262 153 156 248 183 -122 192 -281 -4 hvcurveto
          -178 -3 -144 -136 -87 -134 rrcurveto
          138 -93 -119 135 -203 hhcurveto
          -228 -181 -139 -264 -196 147 -179 260 4 hvcurveto
          491 390 rmoveto
          125 75 106 134 136 hhcurveto
          190 80 -133 -127 -128 -69 -146 -169 -157 -115 154 121 -77 hvcurveto
          -474 -274 rmoveto
          -196 -77 132 131 140 89 130 184 149 100 -155 -119 74 hvcurveto
          -150 -92 -109 -109 -122 hhcurveto
          endchar
        </CharString>
        <CharString name="integral">
          -259 -518 125 1952 125 hstem
          248 154 273 152 vstem
          165 -287 rmoveto
          -64 -102 rlineto
          -79 55 135 -50 130 hhcurveto
          290 116 207 280 hvcurveto
          424 -425 414 400 vvcurveto
          211 82 141 186 116 72 -52 -41 24 vhcurveto
          87 86 rlineto
          99 -59 -121 33 -116 hhcurveto
          -282 -143 -198 -278 hvcurveto
          -421 427 -418 -401 vvcurveto
          -277 -112 -84 -162 -133 -77 73 33 -26 vhcurveto
          endchar
        </CharString>
        <CharString name="iogonek">
          -713 29 callgsubr
          420 -32 callgsubr
          269 30 callgsubr
          21 164 -3 320 -291 2 callgsubr
          hintmask 11110100
          289 1388 -102 callsubr
          hintmask 11100010
          -78 -1388 rmoveto
          17 hlineto
          hintmask 11101010
          38 callsubr
          112 -77 140 hhcurveto
          hintmask 11100100
          85 89 20 callgsubr
          -51 -1 rrcurveto
          hintmask 11101010
          -84 -69 40 92 -2 hvcurveto
          -1 118 89 95 85 54 rrcurveto
          hintmask 11100010
          19 1139 -166 hlineto
          endchar
        </CharString>
        <CharString name="itilde">
          -54 callsubr
          244 -19 callsubr
          -119 822 -492 166 hintmask 11000010
          211 hmoveto
          -66 callgsubr
          hintmask 00000000
          -264 269 rmoveto
          hintmask 00101100
          -51 callsubr
          hintmask 00110100
          -73 callgsubr
          hintmask 00101100
          -22 callsubr
        </CharString>
        <CharString name="j">
          6 callsubr
          269 30 callgsubr
          181 230 -200 -44 callsubr
          77 5 callsubr
        </CharString>
        <CharString name="jcircumflex">
          6 callsubr
          183 390 hstemhm
          -64 737 -462 -44 callsubr
          -178 163 -40 callsubr
        </CharString>
        <CharString name="k">
          -135 21 -32 callgsubr
          hstem
          188 166 vstem
          188 hmoveto
          -38 callgsubr
        </CharString>
        <CharString name="kcommaaccent">
          -135 -14 callgsubr
          1139 -20 hstemhm
          188 166 227 143 hintmask 10001000
          509 -104 callsubr
          hintmask 01110000
          -441 97 rmoveto
          -38 callgsubr
        </CharString>
        <CharString name="kgreenlandic">
          -130 21 -32 callgsubr
          21 -20 hstemhm
          198 2 callgsubr
          hintmask 10110000
          199 hmoveto
          167 200 hlineto
          -5 158 188 196 406 -554 rlineto
          191 hlineto
          -489 667 rlineto
          hintmask 11010000
          450 472 rlineto
          -192 hlineto
          -554 -598 3 99 rlineto
          hintmask 10110000
          500 -167 vlineto
          endchar
        </CharString>
        <CharString name="l">
          -707 21 -21 hstem
          214 167 vstem
          214 -17 callgsubr
          endchar
        </CharString>
        <CharString name="lacute">
          -693 21 -21 1533 -20 168 -21 hstemhm
          214 167 -166 458 hintmask 11010000
          214 hmoveto
          167 1533 -167 hlineto
          hintmask 00101000
          73 56 -101 callgsubr
          endchar
        </CharString>
        <CharString name="lcaron">
          -552 21 -21 1037 648 hstemhm
          214 167 238 150 hintmask 10100000
          214 -17 callgsubr
          hintmask 01010000
          436 -627 -81 callgsubr
        </CharString>
        <CharString name="lcommaaccent">
          -707 -14 callgsubr
          hstemhm
          214 167 -125 143 hintmask 10010000
          184 -104 callsubr
          hintmask 01100000
          -90 97 rmoveto
          -5 callgsubr
          endchar
        </CharString>
        <CharString name="ldot">
          -313 21 -21 753 -21 hstemhm
          214 167 298 233 hintmask 10100000
          214 -17 callgsubr
          hintmask 01010000
          465 -808 rmoveto
          -78 callsubr
          endchar
        </CharString>
        <CharString name="less">
          67 254 1039 hstem
          171 962 vstem
          171 712 rmoveto
          962 -458 rlineto
          159 vlineto
          -789 360 789 364 rlineto
          156 vlineto
          -962 -459 rlineto
          endchar
        </CharString>
        <CharString name="lessequal">
          67 0 124 hstem
          173 965 vstem
          173 711 rmoveto
          965 -448 rlineto
          155 vlineto
          -798 355 798 355 rlineto
          154 vlineto
          -965 -448 rlineto
          -834 vmoveto
          965 124 -965 hlineto
          endchar
        </CharString>
        <CharString name="logicalnot">
          169 726 126 hstem
          1073 152 vstem
          235 726 rmoveto
          838 -403 152 529 -990 hlineto
          endchar
        </CharString>
        <CharString name="lozenge">
          -58 21 -21 hstem
          84 1075 vstem
          619 hmoveto
          5 hlineto
          535 762 rlineto
          13 vlineto
          -535 741 rlineto
          -4 hlineto
          -536 -741 rlineto
          -13 vlineto
          536 -538 rmoveto
          -371 541 rlineto
          7 vlineto
          371 524 rlineto
          3 hlineto
          370 -524 rlineto
          -4 vlineto
          -370 -544 rlineto
          endchar
        </CharString>
        <CharString name="lslash">
          -707 21 -21 hstem
          214 167 vstem
          214 hmoveto
          167 826 hlineto
          221 85 rlineto
          123 vlineto
          -221 -89 rlineto
          719 -167 -785 vlineto
          -170 -68 rlineto
          -115 vlineto
          170 65 rlineto
          endchar
        </CharString>
        <CharString name="m">
          677 21 callsubr
          -18 -20 14 callsubr
          559 167 540 2 callgsubr
          hintmask 11011100
          -70 callgsubr
          hintmask 10111100
          -27 callsubr
          endchar
        </CharString>
        <CharString name="macron">
          -658 1452 124 hstem
          50 543 vstem
          50 1452 -56 callgsubr
          endchar
        </CharString>
        <CharString name="macron.cap">
          -7 callgsubr
        </CharString>
        <CharString name="minus">
          -2 callsubr
        </CharString>
        <CharString name="minute">
          -658 1190 600 hstem
          197 281 vstem
          197 1190 6 callgsubr
          endchar
        </CharString>
        <CharString name="mu">
          -76 callgsubr
        </CharString>
        <CharString name="multiply">
          69 326 898 hstem
          250 871 vstem
          349 326 rmoveto
          337 354 336 -354 99 98 -348 350 348 353 -99 97 -336 -362 -337 362 -99 -97 348 -356 -348 -347 rlineto
          endchar
        </CharString>
        <CharString name="n">
          24 callgsubr
          -18 -20 14 callsubr
          576 -14 callsubr
          hintmask 11011000
          193 hmoveto
          -95 callsubr
          hintmask 10111000
          -27 callsubr
          endchar
        </CharString>
        <CharString name="nacute">
          24 callgsubr
          542 -21 14 callsubr
          216 457 -97 167 hintmask 00101000
          662 1315 -101 callsubr
          hintmask 00000000
          -383 -1383 rmoveto
          -95 callsubr
          hintmask 11010100
          -27 callsubr
          endchar
        </CharString>
        <CharString name="napostrophe">
          -13 -14 callgsubr
          1018 139 14 callsubr
          262 143 171 167 hintmask 10001000
          550 -104 callsubr
          hintmask 00000000
          -477 97 rmoveto
          -95 callsubr
          hintmask 01110100
          -27 callsubr
          endchar
        </CharString>
        <CharString name="nbspace">
          -646 endchar
        </CharString>
        <CharString name="ncaron">
          24 callgsubr
          532 -21 22 -21 14 callsubr
          -32 737 -129 -14 callsubr
          hintmask 00010100
          625 -49 callgsubr
          hintmask 00000000
          -135 -1669 rmoveto
          -95 callsubr
          hintmask 11001010
          -27 callsubr
          endchar
        </CharString>
        <CharString name="ncommaaccent">
          -13 -14 callgsubr
          1018 139 14 callsubr
          262 143 171 167 hintmask 10001000
          550 -104 callsubr
          hintmask 00000000
          -477 97 rmoveto
          -95 callsubr
          hintmask 01110100
          -27 callsubr
          endchar
        </CharString>
        <CharString name="nine">
          95 254 130 761 119 hstem
          180 168 685 178 vstem
          311 -270 rmoveto
          57 -103 rlineto
          385 79 458 412 560 vvcurveto
          315 -172 271 -329 -336 -194 -233 -309 -238 147 -230 265 147 98 48 42 38 vhcurveto
          -40 95 rlineto
          -24 -39 -52 -31 -109 hhcurveto
          -158 -129 135 258 169 119 199 218 258 96 -241 -300 -6 hvcurveto
          -7 -331 -277 -436 -438 -107 rrcurveto
          endchar
        </CharString>
        <CharString name="notequal">
          30 callsubr
          426 203 rmoveto
          131 hlineto
          84 225 rlineto
          515 127 -467 hlineto
          156 431 rlineto
          311 128 -262 hlineto
          78 205 rlineto
          -133 hlineto
          -77 -205 rlineto
          -521 -128 472 hlineto
          -156 -431 rlineto
          -316 -127 269 hlineto
          endchar
        </CharString>
        <CharString name="ntilde">
          24 callgsubr
          -18 -20 244 -19 callsubr
          193 167 -75 822 -171 167 -3 callsubr
          hintmask 1100001010000000
          193 hmoveto
          -95 callsubr
          hintmask 1010001010000000
          -27 callsubr
          -3 callsubr
          158 269 -74 callgsubr
        </CharString>
        <CharString name="numbersign">
          255 21 -21 358 119 437 117 hstem
          203 1166 vstem
          383 hmoveto
          143 hlineto
          33 358 rlineto
          376 hlineto
          -31 -358 rlineto
          140 hlineto
          33 358 rlineto
          246 hlineto
          -1 119 rlineto
          -234 hlineto
          40 437 rlineto
          241 117 -230 hlineto
          31 338 rlineto
          -145 hlineto
          -30 -338 rlineto
          -374 hlineto
          32 338 rlineto
          -145 hlineto
          -31 -338 rlineto
          -238 -117 227 hlineto
          -40 -437 rlineto
          -223 -119 212 hlineto
          155 119 rmoveto
          40 437 rlineto
          374 hlineto
          -38 -437 rlineto
          endchar
        </CharString>
        <CharString name="o">
          -40 callgsubr
          hstem
          105 170 674 169 vstem
          -88 callsubr
          endchar
        </CharString>
        <CharString name="oacute">
          -40 callgsubr
          543 -21 29 callsubr
          224 457 -7 169 hintmask 00101000
          585 1315 -101 callsubr
          hintmask 11010100
          -394 -792 -106 callsubr
          endchar
        </CharString>
        <CharString name="obreve">
          -40 callgsubr
          179 130 29 callsubr
          7 22 callsubr
          -9 169 hintmask 11010010
          -88 callsubr
          hintmask 00101100
          14 1232 -96 callgsubr
        </CharString>
        <CharString name="ocircumflex">
          -40 callgsubr
          146 390 29 callsubr
          -25 737 -38 169 hintmask 00101000
          347 1302 -97 callsubr
          hintmask 11010100
          -145 -754 -106 callsubr
          endchar
        </CharString>
        <CharString name="odieresis">
          -40 callgsubr
          252 225 29 callsubr
          12 21 callgsubr
          -6 169 hintmask 00000000
          hintmask 00101100
          838 1408 -93 callgsubr
          hintmask 11010010
          -282 -817 -106 callsubr
          endchar
        </CharString>
        <CharString name="oe">
          678 -16 119 -119 127 442 112 370 121 29 callsubr
          680 163 599 157 hintmask 00000000
          hintmask 10111110
          105 591 rmoveto
          -322 -4 139 -285 362 hhcurveto
          184 154 81 150 90 hvcurveto
          -149 81 142 -82 198 hhcurveto
          141 170 43 62 76 hvcurveto
          hintmask 01111110
          -33 97 rlineto
          -39 -60 -150 -36 -103 hhcurveto
          -210 -154 109 293 -9 hvcurveto
          -1 13 0 14 13 vvcurveto
          748 hlineto
          8 47 0 55 73 vvcurveto
          -6 260 -161 171 -242 -3 -196 -3 -144 -88 -84 -145 rrcurveto
          142 -76 -133 94 -206 hhcurveto
          hintmask 10111110
          -291 -224 -201 -364 -6 hvcurveto
          1020 74 rmoveto
          263 29 132 109 168 hhcurveto
          207 67 -163 -209 -11 hvcurveto
          -1110 -562 rmoveto
          -232 3 -101 223 1 260 1 285 132 164 214 -3 228 -2 106 -210 -1 -262 -1 -285 -129 -176 -218 3 rrcurveto
          endchar
        </CharString>
        <CharString name="ogonek">
          -682 -511 110 hstem
          51 149 vstem
          51 -307 rmoveto
          -134 2 116 -70 126 hhcurveto
          125 95 41 32 49 hvcurveto
          -15 91 rlineto
          -21 -44 -82 -33 -72 hhcurveto
          -95 -56 42 80 hvcurveto
          -1 116 179 129 99 38 -73 3 rcurveline
          -74 -6 -131 -53 -149 -126 1 -129 rlinecurve
          endchar
        </CharString>
        <CharString name="ograve">
          -40 callgsubr
          543 -21 29 callsubr
          -6 457 223 169 hintmask 11010100
          -88 callsubr
          hintmask 00101000
          35 1212 -90 callsubr
        </CharString>
        <CharString name="ohungarumlaut">
          -40 callgsubr
          198 463 29 callsubr
          -4 883 -205 169 hintmask 00101000
          350 1354 -70 callsubr
          hintmask 11010100
          -658 -817 -106 callsubr
          endchar
        </CharString>
        <CharString name="omacron">
          -40 callgsubr
          296 124 29 callsubr
          75 543 56 169 hintmask 00101000
          350 1452 -56 callgsubr
          hintmask 11010100
          -245 -985 -106 callsubr
          endchar
        </CharString>
        <CharString name="one">
          -387 21 -21 hstem
          409 174 vstem
          409 hmoveto
          174 1256 hlineto
          -78 22 -54 -48 -190 -112 -134 -40 rlinecurve
          20 -101 88 21 91 34 83 35 rlinecurve
          endchar
        </CharString>
        <CharString name="onehalf">
          1127 -3 124 -100 -21 662 1026 -794 121 515 -20 hstemhm
          487 161 116 691 591 163 hintmask 10010001
          1502 -3 -55 callgsubr
          hintmask 00100100
          -982 579 -45 callsubr
          hintmask 01001010
          277 -1487 rmoveto
          -20 callsubr
          endchar
        </CharString>
        <CharString name="onequarter">
          1127 21 -21 227 116 319 1026 -158 -20 hstemhm
          487 161 115 691 460 156 hintmask 01000010
          1374 227 -68 callgsubr
          hintmask 10010100
          -570 -299 rmoveto
          -20 callsubr
          hintmask 00101000
          -815 -868 -45 callsubr
          endchar
        </CharString>
        <CharString name="onesuperior">
          -292 662 1026 hstem
          479 161 vstem
          479 662 -45 callsubr
          endchar
        </CharString>
        <CharString name="ordfeminine">
          -269 678 112 338 94 257 118 hstem
          139 148 430 151 vstem
          445 678 rmoveto
          108 118 48 46 55 hvcurveto
          -31 vlineto
          -59 32 3 56 vhcurveto
          54 619 hlineto
          226 -130 67 -203 -155 -180 -76 -35 -37 vhcurveto
          43 -93 rlineto
          31 43 145 55 108 hhcurveto
          149 66 -35 -143 hvcurveto
          -79 vlineto
          -108 -172 -12 -45 -119 hvcurveto
          -107 -40 -72 -70 -131 vvcurveto
          -160 127 -86 179 vhcurveto
          27 112 rmoveto
          -115 -70 54 90 89 47 36 61 29 hvcurveto
          36 76 131 4 115 hhcurveto
          -268 vlineto
          -29 -46 -110 -41 -89 hhcurveto
          endchar
        </CharString>
        <CharString name="ordmasculine">
          -268 675 114 696 112 hstem
          114 159 488 158 vstem
          511 675 rmoveto
          200 203 128 327 5 hvcurveto
          280 4 -139 187 -251 hhcurveto
          -193 -221 -123 -326 -5 hvcurveto
          -287 -3 149 -186 251 hhcurveto
          8 114 rmoveto
          -154 -2 -93 141 1 220 1 243 116 92 135 2 152 1 85 -136 -1 -221 -2 -242 -99 -97 -141 -1 rrcurveto
          endchar
        </CharString>
        <CharString name="oslash">
          -76 -16 119 -84 -21 1037 121 -14 -20 hstemhm
          103 170 679 170 hintmask 00000000
          hintmask 10101100
          312 -168 rmoveto
          96 -27 rlineto
          hintmask 01101100
          65 193 rlineto
          hintmask 10011100
          -9 40 43 -5 47 hhcurveto
          295 218 207 363 6 hvcurveto
          2 245 -82 219 -196 92 67 198 rcurveline
          -96 28 -65 -194 rlineto
          hintmask 10101100
          9 -39 -43 5 -46 hhcurveto
          -292 -224 -201 -364 -5 hvcurveto
          -3 -245 80 -223 198 -93 rrcurveto
          46 136 rmoveto
          -105 84 -47 161 1 178 1 285 130 164 217 -3 32 -1 31 -4 27 -9 rrcurveto
          -198 -904 rmoveto
          288 858 rlineto
          103 -81 48 -154 -179 vvcurveto
          -1 -285 -126 -176 -218 3 rrcurveto
          -34 -32 5 9 -28 hvcurveto
          endchar
        </CharString>
        <CharString name="otilde">
          -40 callgsubr
          207 -19 callsubr
          105 170 -67 822 -81 169 hintmask 11000101
          -88 callsubr
          hintmask 00000000
          -332 1305 rmoveto
          hintmask 00101010
          -51 callsubr
          hintmask 00110010
          -73 callgsubr
          hintmask 00101010
          -22 callsubr
        </CharString>
        <CharString name="p">
          32 callsubr
          hstemhm
          187 166 621 170 hintmask 00000000
          hintmask 11101100
          -22 callgsubr
          hintmask 11011100
          12 callgsubr
          hintmask 11101100
          -11 callgsubr
          hintmask 11011100
          -123 -75 25 32 -37 hvcurveto
          endchar
        </CharString>
        <CharString name="paragraph">
          18 21 -21 1579 132 hstem
          532 140 282 140 vstem
          532 hmoveto
          140 1586 hlineto
          2 28 236 -9 18 hhcurveto
          -1579 140 1689 vlineto
          3 -115 -236 19 -94 hhcurveto
          -371 -187 -172 -262 -309 144 -136 297 hvcurveto
          endchar
        </CharString>
        <CharString name="parenleft">
          -453 1696 -21 hstem
          142 163 vstem
          598 -327 rmoveto
          115 57 -93 67 -328 309 13 618 rlinecurve
          12 574 319 321 77 56 -115 57 rcurveline
          -92 -51 -364 -382 -575 vvcurveto
          -673 369 -323 87 -55 vhcurveto
          endchar
        </CharString>
        <CharString name="parenright">
          -453 -269 21 hstem
          543 163 vstem
          250 1754 rmoveto
          -115 -57 93 -67 328 -309 -13 -618 rlinecurve
          -12 -574 -319 -321 -77 -56 115 -57 rcurveline
          92 51 364 382 575 vvcurveto
          673 -369 323 -87 55 vhcurveto
          endchar
        </CharString>
        <CharString name="partialdiff">
          65 -29 123 832 117 516 125 hstem
          164 161 738 157 vstem
          164 437 rmoveto
          -284 16 205 -182 274 hhcurveto
          445 124 446 444 -8 hvcurveto
          409 -8 -167 414 -490 hhcurveto
          -120 -157 -33 -69 -93 hvcurveto
          56 -96 rlineto
          40 59 114 33 110 hhcurveto
          365 138 -257 -308 29 hvcurveto
          35 -93 -93 14 -104 hhcurveto
          -343 -282 -225 -381 23 hvcurveto
          161 26 rmoveto
          312 -18 236 151 210 hhcurveto
          116 100 -13 -49 94 hvcurveto
          -48 vlineto
          -273 -47 -447 -343 -2 vhcurveto
          -225 -1 -110 148 -13 222 rrcurveto
          endchar
        </CharString>
        <CharString name="percent">
          643 -24 callsubr
          -3 callsubr
          hintmask 1110111111000000
          567 hmoveto
          -69 callsubr
          hintmask 1101111111000000
          -63 callgsubr
        </CharString>
        <CharString name="period">
          -700 5 -21 hstem
          184 233 vstem
          184 108 rmoveto
          -78 callsubr
          endchar
        </CharString>
        <CharString name="periodcentered">
          -709 628 -21 hstem
          179 233 vstem
          179 731 rmoveto
          -78 callsubr
          endchar
        </CharString>
        <CharString name="perthousand">
          1466 -24 callsubr
          103 150 422 149 hintmask 0101000000110000
          1961 452 rmoveto
          -215 128 -186 218 5 vhcurveto
          196 5 179 140 260 vvcurveto
          223 -105 184 -240 -7 vhcurveto
          -197 -6 -179 -142 -261 vvcurveto
          150 6 rmoveto
          180 86 110 130 2 vhcurveto
          136 2 70 -123 -173 vvcurveto
          -181 -87 -106 -129 -1 vhcurveto
          -130 -1 -76 128 163 vvcurveto
          -3 callsubr
          -1544 -458 rmoveto
          -69 callsubr
          hintmask 1110111111000000
          -63 callgsubr
        </CharString>
        <CharString name="pi">
          266 -24 131 892 140 hstem
          941 152 vstem
          199 70 rmoveto
          103 -94 61 16 47 24 39 36 rlinecurve
          91 83 56 64 12 229 32 572 rcurveline
          351 -1 -50 -750 rlineto
          -170 -10 58 -103 144 hhcurveto
          163 123 140 123 20 hvcurveto
          -83 36 rlineto
          -71 -27 -71 -97 -78 hhcurveto
          -63 -28 58 86 4 hvcurveto
          35 748 rlineto
          46 hlineto
          174 83 68 148 13 hvcurveto
          -110 hlineto
          -57 -23 -50 -18 -82 hhcurveto
          -723 hlineto
          -137 -95 -33 -81 -55 hvcurveto
          -22 -34 -18 -54 -23 vvcurveto
          86 -39 rlineto
          68 22 80 56 112 hhcurveto
          71 hlineto
          -37 -513 -12 -161 -11 -105 -119 -90 rlinecurve
          -53 -38 -51 -19 -18 -4 rrcurveto
          endchar
        </CharString>
        <CharString name="plus">
          92 706 134 hstem
          627 136 vstem
          627 288 -51 callgsubr
        </CharString>
        <CharString name="plusminus">
          92 0 126 580 134 hstemhm
          251 890 -514 136 hintmask 10100000
          251 hmoveto
          890 126 -890 hlineto
          hintmask 01010000
          376 162 -51 callgsubr
        </CharString>
        <CharString name="product">
          328 1396 126 hstem
          339 170 611 170 vstem
          339 -171 rmoveto
          170 1566 611 -1566 170 1567 209 126 -1369 -126 209 hlineto
          endchar
        </CharString>
        <CharString name="q">
          -63 -485 -21 490 131 919 122 -12 -20 hstemhm
          102 171 620 -14 callsubr
          hintmask 11101100
          102 533 rmoveto
          -386 217 -163 233 180 106 81 55 59 vhcurveto
          -4 -259 rlineto
          -367 167 vlineto
          hintmask 11011100
          1650 vlineto
          hintmask 11101100
          -145 -28 rlineto
          -2 vlineto
          21 -55 -87 21 -99 hhcurveto
          -344 -228 -259 -364 hvcurveto
          495 -418 rmoveto
          -204 -124 144 297 4 hvcurveto
          304 3 164 174 218 hhcurveto
          123 76 -25 -31 36 hvcurveto
          -749 vlineto
          -48 -56 -109 -66 -131 hhcurveto
          endchar
        </CharString>
        <CharString name="question">
          -254 5 -21 1709 -21 24 141 hstemhm
          295 162 -68 228 150 165 hintmask 00000000
          hintmask 10110100
          387 465 rmoveto
          127 1 -31 92 -34 90 8 94 rlinecurve
          11 191 422 38 36 310 rrcurveto
          284 42 -164 272 -461 hhcurveto
          -91 -99 -26 -16 -19 hvcurveto
          hintmask 11001100
          -123 vlineto
          hintmask 10110100
          12 29 64 12 90 hhcurveto
          318 173 -159 -265 -49 hvcurveto
          -24 -221 -446 -69 6 -223 2 -115 50 -126 40 -53 rrcurveto
          hintmask 10101100
          2 -360 rmoveto
          -73 2 50 -48 56 hhcurveto
          64 58 57 81 -2 hvcurveto
          66 -2 -36 54 -71 hhcurveto
          -61 -60 -61 -76 2 hvcurveto
          endchar
        </CharString>
        <CharString name="questiondown">
          -254 -313 141 3 21 1667 21 hstemhm
          114 165 150 228 -68 162 hintmask 00000000
          hintmask 10110100
          659 1059 rmoveto
          -127 -1 31 -92 34 -90 -8 -94 rlinecurve
          -11 -191 -422 -38 -36 -310 rrcurveto
          -284 -42 164 -272 461 hhcurveto
          91 99 26 16 19 hvcurveto
          hintmask 01111000
          123 vlineto
          hintmask 10110100
          -12 -29 -64 -12 -90 hhcurveto
          -318 -173 159 265 49 hvcurveto
          24 221 446 69 -6 223 -2 115 -50 126 -40 53 rrcurveto
          hintmask 10111000
          -2 360 rmoveto
          73 -2 -50 48 -56 hhcurveto
          -64 -58 -57 -81 2 hvcurveto
          -66 2 36 -54 71 hhcurveto
          61 60 61 76 -2 hvcurveto
          endchar
        </CharString>
        <CharString name="quotedbl">
          -87 966 719 hstemhm
          286 158 324 158 hintmask 11000000
          299 966 14 callgsubr
          hintmask 10100000
          507 -719 14 callgsubr
          endchar
        </CharString>
        <CharString name="quotedblbase">
          -320 -517 774 hstemhm
          233 157 329 157 hintmask 11000000
          195 -517 -90 callgsubr
          hintmask 10100000
          558 -47 -90 callgsubr
          endchar
        </CharString>
        <CharString name="quotedblleft">
          -320 1686 -21 hstemhm
          101 157 331 157 hintmask 11000000
          294 963 rmoveto
          -62 callgsubr
          hintmask 10100000
          488 hmoveto
          -62 callgsubr
          endchar
        </CharString>
        <CharString name="quotedblright">
          -320 963 774 hstemhm
          233 157 331 157 hintmask 11000000
          195 963 -90 callgsubr
          hintmask 10100000
          560 -47 -90 callgsubr
          endchar
        </CharString>
        <CharString name="quoteleft">
          -803 1686 -21 hstem
          101 157 vstem
          294 963 rmoveto
          -62 callgsubr
          endchar
        </CharString>
        <CharString name="quotereversed">
          -803 963 774 hstem
          96 157 vstem
          311 963 rmoveto
          72 47 rlineto
          25 vlineto
          -59 47 -71 137 143 vvcurveto
          100 56 105 66 28 vhcurveto
          46 vlineto
          -86 96 rlineto
          -119 -41 -74 -144 -159 vvcurveto
          -219 131 -156 84 -55 vhcurveto
          endchar
        </CharString>
        <CharString name="quoteright">
          -803 963 774 hstem
          233 157 vstem
          195 963 -90 callgsubr
          endchar
        </CharString>
        <CharString name="quotesinglbase">
          -803 -536 774 hstem
          233 157 vstem
          195 -536 -90 callgsubr
          endchar
        </CharString>
        <CharString name="quotesingle">
          -570 966 719 hstem
          286 158 vstem
          299 966 14 callgsubr
          endchar
        </CharString>
        <CharString name="r">
          34 callgsubr
          -17 -20 24 -20 hstemhm
          185 -14 callsubr
          hintmask 11001000
          185 hmoveto
          -46 callsubr
          hintmask 10011000
          157 vlineto
          hintmask 11001000
          -32 callsubr
          hintmask 10101000
          11 callgsubr
        </CharString>
        <CharString name="racute">
          34 callgsubr
          -13 -20 576 -21 hstemhm
          185 167 17 457 hintmask 00010100
          455 1315 -101 callsubr
          hintmask 00000000
          -184 -1383 rmoveto
          -46 callsubr
          hintmask 11001000
          157 vlineto
          hintmask 10101000
          -32 callsubr
          hintmask 11001000
          11 callgsubr
        </CharString>
        <CharString name="radical">
          301 -354 2224 hstem
          97 1474 vstem
          169 478 rmoveto
          144 88 407 -920 rlineto
          137 hlineto
          714 2224 rlineto
          -165 hlineto
          -624 -2004 -351 848 rlineto
          -146 hlineto
          -188 -115 rlineto
          endchar
        </CharString>
        <CharString name="rcaron">
          34 callgsubr
          -13 -20 566 -21 22 -21 hstemhm
          121 737 -673 -14 callsubr
          hintmask 00001100
          418 1322 rmoveto
          149 hlineto
          hintmask 00010100
          -48 callgsubr
          hintmask 00001100
          -18 callgsubr
          hintmask 00000000
          64 -1669 rmoveto
          -46 callsubr
          hintmask 11000010
          157 vlineto
          hintmask 10100010
          -32 callsubr
          hintmask 11000010
          11 callgsubr
        </CharString>
        <CharString name="rcommaaccent">
          -475 -14 callgsubr
          1009 147 -13 -20 hstemhm
          185 167 -115 143 hintmask 10000100
          165 -104 callsubr
          hintmask 00000000
          -100 97 rmoveto
          -46 callsubr
          hintmask 01101000
          157 vlineto
          hintmask 01011000
          -32 callsubr
          hintmask 01101000
          11 callgsubr
        </CharString>
        <CharString name="registered">
          832 95 99 669 98 388 101 284 97 hstem
          204 109 439 135 406 140 386 -60 callsubr
          439 -483 rmoveto
          135 381 172 hlineto
          106 -32 46 -156 47 -87 20 -41 17 -33 25 -31 156 -1 rcurveline
          -47 69 -18 24 -18 33 -51 87 -41 132 -88 56 rrcurveto
          162 37 58 115 146 vvcurveto
          149 -108 120 -249 vhcurveto
          -85 -82 -6 -83 hhcurveto
          -74 hlineto
          135 -480 rmoveto
          375 vlineto
          67 7 38 2 47 1 rrcurveto
          187 4 67 -73 -116 vvcurveto
          -141 -82 -60 -150 -2 vhcurveto
          -25 -127 1 2 -22 hvcurveto
          endchar
        </CharString>
        <CharString name="ring">
          -588 1332 97 334 95 hstem
          47 8 callsubr
          vstem
          353 1332 -79 callsubr
          endchar
        </CharString>
        <CharString name="ring.cap">
          -588 1459 97 321 95 hstem
          47 8 callsubr
          vstem
          353 1459 -56 callsubr
        </CharString>
        <CharString name="s">
          -16 callsubr
          hstem
          132 155 440 156 vstem
          123 66 -105 callsubr
          endchar
        </CharString>
        <CharString name="sacute">
          -16 callsubr
          543 -21 hstemhm
          132 155 106 457 -123 156 hintmask 00101000
          479 1315 -101 callsubr
          hintmask 11010100
          -270 -1317 -105 callsubr
          endchar
        </CharString>
        <CharString name="scaron">
          -16 callsubr
          533 -21 22 -21 hstemhm
          132 155 -142 737 -155 156 hintmask 00000000
          hintmask 00010100
          442 -49 callgsubr
          hintmask 11001010
          -22 -1603 -105 callsubr
          endchar
        </CharString>
        <CharString name="scedilla">
          -317 -464 119 330 123 924 124 hstem
          132 155 167 124 149 156 vstem
          123 66 rmoveto
          59 -39 129 -35 132 -7 11 -38 6 -51 -6 -76 -67 callgsubr
          5 91 -11 76 -25 52 rrcurveto
          207 18 129 110 182 vvcurveto
          197 -197 90 -150 59 vhcurveto
          -148 57 -103 57 2 120 rrcurveto
          90 1 85 65 163 hhcurveto
          112 108 -32 -30 39 hvcurveto
          28 127 -40 23 -120 37 -133 -1 rlinecurve
          -214 -1 -180 -91 -4 -196 -2 -186 150 -98 175 -71 rrcurveto
          136 -55 136 -53 -120 vvcurveto
          -118 -104 -59 -146 vhcurveto
          -138 2 -147 52 -43 30 rrcurveto
          endchar
        </CharString>
        <CharString name="scircumflex">
          -16 callsubr
          146 390 hstemhm
          132 155 -144 737 -153 156 hintmask 00101000
          240 1302 -97 callsubr
          hintmask 11010100
          -20 -1279 -105 callsubr
          endchar
        </CharString>
        <CharString name="second">
          -253 1190 600 hstemhm
          197 281 123 281 hintmask 11000000
          197 1190 6 callgsubr
          hintmask 10100000
          298 -600 6 callgsubr
          endchar
        </CharString>
        <CharString name="section">
          57 -193 126 1614 126 hstemhm
          218 153 -141 153 601 152 -144 152 hintmask 00000000
          hintmask 11010100
          227 -100 rmoveto
          -43 64 161 -50 196 hhcurveto
          hintmask 11011000
          217 271 74 259 94 -43 68 -65 54 hvcurveto
          hintmask 11010100
          69 74 47 95 107 439 -761 -44 333 vvcurveto
          140 152 46 161 1 vhcurveto
          179 1 106 -44 46 -31 33 127 rcurveline
          34 -57 -119 39 -185 hhcurveto
          -207 -262 -68 -263 -115 51 -79 77 -62 hvcurveto
          hintmask 11101000
          -81 -77 -59 -106 -120 -410 766 43 -291 vvcurveto
          -141 -163 -50 -170 -1 vhcurveto
          -192 -1 -145 56 -54 39 rrcurveto
          111 783 rmoveto
          77 40 84 35 57 vhcurveto
          hintmask 11010100
          226 -127 320 -53 -243 vvcurveto
          -60 -26 -71 -31 -57 vhcurveto
          hintmask 11101000
          -227 121 -337 44 228 vvcurveto
          endchar
        </CharString>
        <CharString name="semicolon">
          -700 -478 -21 1328 -21 hstemhm
          184 233 -121 158 hintmask 10010000
          190 -34 callsubr
          hintmask 01100000
          -6 773 rmoveto
          -78 callsubr
          endchar
        </CharString>
        <CharString name="seven">
          -65 1134 136 hstem
          150 975 vstem
          377 -278 rmoveto
          179 -52 569 1555 -37 46 rlineto
          -937 hlineto
          -1 -136 791 -1 -124 -330 -286 -755 -154 -327 rlinecurve
          endchar
        </CharString>
        <CharString name="six">
          76 -16 117 754 130 hstem
          168 181 687 169 vstem
          168 570 rmoveto
          -316 188 -270 324 350 175 277 285 229 -146 210 -261 -134 -108 -50 -40 -41 vhcurveto
          47 -100 rlineto
          25 31 74 35 97 hhcurveto
          138 134 -91 -252 -194 -105 -217 -230 -268 -90 257 283 6 hvcurveto
          7 345 272 368 410 106 -46 108 rcurveline
          -383 -75 -441 -389 -534 vvcurveto
          endchar
        </CharString>
        <CharString name="slash">
          33 callgsubr
          66 721 vstem
          66 -363 rmoveto
          150 hlineto
          571 1962 rlineto
          -151 hlineto
          endchar
        </CharString>
        <CharString name="space">
          -646 endchar
        </CharString>
        <CharString name="sterling">
          245 -24 120 -85 -21 774 116 531 127 hstemhm
          442 167 626 158 hintmask 00000000
          hintmask 01111100
          141 54 rmoveto
          -39 49 -25 37 65 65 39 39 34 vhcurveto
          hintmask 10111100
          42 136 170 -134 285 hhcurveto
          294 117 140 201 107 -66 100 -62 37 hvcurveto
          -119 -61 rlineto
          54 -27 35 -82 -64 vvcurveto
          -138 -74 -93 -199 -200 -106 78 -5 -152 vhcurveto
          62 64 46 144 -2 282 rrcurveto
          105 384 116 -385 155 vlineto
          289 -2 143 87 138 hhcurveto
          133 76 -39 -50 57 hvcurveto
          80 122 rlineto
          55 -70 -101 39 -158 hhcurveto
          -287 -176 -200 -281 hvcurveto
          -177 -183 -116 183 -299 vlineto
          -144 -68 -88 -21 -39 vhcurveto
          hintmask 01111100
          -146 -8 -66 -60 -72 vvcurveto
          endchar
        </CharString>
        <CharString name="summation">
          207 -170 119 1447 126 -63 63 hstemhm
          200 1074 hintmask 00000000
          hintmask 11010000
          200 -128 rmoveto
          20 -42 1054 -1 rlineto
          120 -841 vlineto
          515 735 -527 712 rlineto
          840 126 -1037 hlineto
          hintmask 10110000
          -24 -63 573 -779 rlineto
          endchar
        </CharString>
        <CharString name="t">
          -452 -16 35 callsubr
          hstem
          240 166 vstem
          240 270 -89 callsubr
          endchar
        </CharString>
        <CharString name="tbar">
          -452 -16 134 499 125 272 126 hstem
          240 166 vstem
          240 270 rmoveto
          -244 120 -42 140 104 139 47 47 58 vhcurveto
          -29 97 rlineto
          -10 callsubr
          -113 -39 20 226 hvcurveto
          253 353 125 -353 272 354 126 -354 260 -100 vlineto
          -21 -67 -16 -121 -13 -34 -18 -48 -83 -3 -74 -22 rrcurveto
          -91 159 -272 -160 -125 160 vlineto
          endchar
        </CharString>
        <CharString name="tcaron">
          -306 -16 35 callsubr
          56 648 hstemhm
          240 166 379 150 hintmask 11010000
          240 270 -89 callsubr
          hintmask 00101000
          576 182 -81 callgsubr
        </CharString>
        <CharString name="thorn">
          -53 -486 -21 490 123 919 131 hstem
          188 167 620 170 vstem
          345 10 rmoveto
          -15 67 81 -12 78 hhcurveto
          342 232 256 373 365 -201 179 -249 -181 -107 -83 -57 -59 hvcurveto
          7 170 rlineto
          475 -167 -2168 167 356 vlineto
          306 vmoveto
          754 vlineto
          51 56 112 65 127 hhcurveto
          214 113 -153 -282 -2 hvcurveto
          -325 -3 -181 -159 -202 hhcurveto
          -105 -91 20 29 -38 hvcurveto
          endchar
        </CharString>
        <CharString name="three">
          -165 -337 119 690 84 596 132 hstemhm
          780 165 -92 170 hintmask 00000000
          hintmask 11101000
          148 -204 rmoveto
          1 -115 rlineto
          -12 68 65 -6 62 hhcurveto
          418 261 255 274 179 -133 168 -238 17 hvcurveto
          hintmask 11110000
          162 72 131 136 176 vvcurveto
          231 -194 113 -224 -183 -164 -93 -64 -75 vhcurveto
          66 -96 rlineto
          48 62 116 73 164 hhcurveto
          154 115 -70 -162 -2 hvcurveto
          -1 -123 -95 -120 -182 -67 -57 -22 -57 -17 -71 -14 36 -116 rcurveline
          111 27 rlineto
          hintmask 11101000
          269 31 120 -139 -180 vvcurveto
          -202 -208 -193 -332 -3 vhcurveto
          -52 -1 -57 5 -56 10 rrcurveto
          endchar
        </CharString>
        <CharString name="threequarters">
          1127 227 116 245 45 callsubr
          616 153 -90 161 1074 156 hintmask 10000010
          1374 227 -68 callgsubr
          hintmask 00000000
          -1173 327 0 callgsubr
          hintmask 01110100
          -53 callsubr
          hintmask 01111000
          -1 callsubr
          hintmask 01110100
          613 -736 rmoveto
          -20 callsubr
          endchar
        </CharString>
        <CharString name="threesuperior">
          -107 588 45 callsubr
          764 153 -90 161 hintmask 00000000
          hintmask 11101000
          308 626 0 callgsubr
          hintmask 11110000
          -53 callsubr
          hintmask 11101000
          -1 callsubr
          endchar
        </CharString>
        <CharString name="tilde">
          -384 1363 -19 callsubr
          48 822 hintmask 00000000
          hintmask 10110000
          114 1408 rmoveto
          hintmask 11010000
          -51 callsubr
          hintmask 10110000
          -73 callgsubr
          hintmask 11010000
          -22 callsubr
        </CharString>
        <CharString name="tilde.cap">
          -384 1667 20 callsubr
          48 822 hintmask 00000000
          hintmask 10100000
          114 1713 rmoveto
          hintmask 11100000
          -50 callgsubr
          hintmask 10100000
          -74 callsubr
          hintmask 11100000
          -9 callgsubr
          endchar
        </CharString>
        <CharString name="trademark">
          917 1429 117 -89 89 hstemhm
          458 140 hintmask 00000000
          hintmask 10100000
          1033 767 rmoveto
          130 hlineto
          23 538 rlineto
          hintmask 01100000
          3 152 62 -153 223 -542 rlineto
          91 hlineto
          211 558 48 136 9 -169 35 -520 rlineto
          136 hlineto
          hintmask 10100000
          -67 779 rlineto
          -208 hlineto
          -177 -475 -33 -138 -40 139 -188 474 rlineto
          -221 hlineto
          -612 -779 rmoveto
          140 663 hlineto
          276 -2 rlineto
          118 -685 -118 vlineto
          269 2 rlineto
          endchar
        </CharString>
        <CharString name="two">
          -35 0 132 1021 134 hstem
          878 170 vstem
          156 86 rmoveto
          25 -86 rlineto
          939 135 hlineto
          -688 -5 rlineto
          349 211 267 285 278 vvcurveto
          208 -115 175 -314 -208 -160 -105 -88 -73 vhcurveto
          71 -95 rlineto
          87 79 140 67 133 hhcurveto
          181 96 -100 -158 -293 -371 -309 -351 -207 hvcurveto
          endchar
        </CharString>
        <CharString name="twosuperior">
          -107 679 124 773 121 hstem
          775 163 vstem
          231 679 -55 callgsubr
          endchar
        </CharString>
        <CharString name="u">
          -63 callsubr
          -12 callsubr
          548 -14 callsubr
          hintmask 10111000
          183 471 -79 callgsubr
          hintmask 01111000
          -77 callsubr
          hintmask 10111000
          -88 callgsubr
          endchar
        </CharString>
        <CharString name="uacute">
          -63 callsubr
          579 -21 -12 callsubr
          172 457 -81 167 hintmask 00010100
          607 1315 -101 callsubr
          hintmask 00000000
          -338 -912 -79 callgsubr
          hintmask 10101010
          -77 callsubr
          hintmask 01101010
          -88 callgsubr
          endchar
        </CharString>
        <CharString name="ubreve">
          -63 callsubr
          215 130 -12 callsubr
          -45 22 callsubr
          -83 -14 callsubr
          hintmask 10101001
          183 471 -79 callgsubr
          hintmask 01101001
          -77 callsubr
          hintmask 10101001
          -88 callgsubr
          hintmask 00010110
          459 195 -96 callgsubr
        </CharString>
        <CharString name="ucircumflex">
          -63 callsubr
          182 390 -12 callsubr
          -77 737 -112 167 hintmask 00010100
          369 1302 -97 callsubr
          hintmask 00000000
          -89 -874 -79 callgsubr
          hintmask 10101010
          -77 callsubr
          hintmask 01101010
          -88 callgsubr
          endchar
        </CharString>
        <CharString name="udieresis">
          -63 callsubr
          288 225 -12 callsubr
          -40 21 callgsubr
          -80 -14 callsubr
          hintmask 00010110
          860 1408 -93 callgsubr
          hintmask 00000000
          -226 -937 -79 callgsubr
          hintmask 10101001
          -77 callsubr
          hintmask 01101001
          -88 callgsubr
          endchar
        </CharString>
        <CharString name="ugrave">
          -63 callsubr
          579 -21 -12 callsubr
          -57 457 148 -14 callsubr
          hintmask 10101010
          183 471 -79 callgsubr
          hintmask 01101010
          -77 callsubr
          hintmask 10101010
          -88 callgsubr
          hintmask 00010100
          481 175 -90 callsubr
        </CharString>
        <CharString name="uhungarumlaut">
          -63 callsubr
          234 463 -12 callsubr
          -56 883 -279 -14 callsubr
          hintmask 10101010
          183 471 -79 callgsubr
          hintmask 01101010
          -77 callsubr
          hintmask 10101010
          -88 callgsubr
          hintmask 00010100
          189 214 -70 callsubr
          endchar
        </CharString>
        <CharString name="umacron">
          -63 callsubr
          332 124 -12 callsubr
          23 543 -18 -14 callsubr
          hintmask 10101010
          183 471 -79 callgsubr
          hintmask 01101010
          -77 callsubr
          hintmask 10101010
          -88 callgsubr
          hintmask 00010100
          189 312 -56 callgsubr
          endchar
        </CharString>
        <CharString name="underscore">
          391 -402 105 hstem
          -40 1772 vstem
          -40 -297 rmoveto
          -105 1772 105 vlineto
          endchar
        </CharString>
        <CharString name="uni0001">
          endchar
        </CharString>
        <CharString name="uni0002">
          endchar
        </CharString>
        <CharString name="uni0003">
          endchar
        </CharString>
        <CharString name="uni0005">
          endchar
        </CharString>
        <CharString name="uni0006">
          endchar
        </CharString>
        <CharString name="uni0007">
          endchar
        </CharString>
        <CharString name="uni0008">
          endchar
        </CharString>
        <CharString name="uni0015">
          endchar
        </CharString>
        <CharString name="uni0016">
          endchar
        </CharString>
        <CharString name="uni0017">
          endchar
        </CharString>
        <CharString name="uni0018">
          endchar
        </CharString>
        <CharString name="uni0019">
          endchar
        </CharString>
        <CharString name="uni0162">
          -22 -464 119 366 37 callgsubr
          hstemhm
          62 303 188 171 -126 124 hintmask 00000000
          hintmask 11111000
          365 -327 rmoveto
          -41 callsubr
          hintmask 11110100
          116 103 63 169 10 hvcurveto
          5 99 -13 81 -30 52 rrcurveto
          hintmask 11111000
          40 1391 498 131 -1160 -131 491 -1391 29 hlineto
          14 -39 9 -54 -7 -87 rrcurveto
          -118 -6 -57 -47 -80 hhcurveto
          -37 -36 7 11 -17 hvcurveto
          endchar
        </CharString>
        <CharString name="uni0163">
          -452 -464 119 329 35 callsubr
          hstemhm
          240 166 13 121 hintmask 00000000
          hintmask 11110000
          240 270 rmoveto
          -184 68 -69 94 -23 vhcurveto
          hintmask 11111000
          13 -39 8 -52 -7 -83 -67 callgsubr
          4 89 -10 75 -23 52 102 3 132 45 56 46 -29 97 rcurveline
          -10 callsubr
          hintmask 11110000
          -113 -39 20 226 hvcurveto
          650 354 126 -354 260 -100 vlineto
          -21 -67 -16 -121 -13 -34 -18 -48 -83 -3 -74 -22 rrcurveto
          -91 159 vlineto
          endchar
        </CharString>
        <CharString name="uni0218">
          -140 -539 -21 544 135 1286 133 hstemhm
          144 162 248 143 209 166 hintmask 10001000
          482 -104 callsubr
          hintmask 01110100
          -462 171 -75 callsubr
        </CharString>
        <CharString name="uni0219">
          -317 -539 -21 544 124 924 124 hstemhm
          132 155 176 143 121 156 hintmask 10001000
          391 -104 callsubr
          hintmask 01110100
          -388 163 -105 callsubr
          endchar
        </CharString>
        <CharString name="uni021A">
          -22 -539 -21 581 37 callgsubr
          hstemhm
          553 171 -115 143 hintmask 10001000
          537 -104 callsubr
          hintmask 01110000
          -104 97 rmoveto
          -43 callsubr
        </CharString>
        <CharString name="uni021B">
          -452 -539 -21 544 35 callsubr
          hstemhm
          240 166 20 143 hintmask 10001000
          354 -104 callsubr
          hintmask 01110000
          -234 367 -89 callsubr
          endchar
        </CharString>
        <CharString name="uni02c9">
          -7 callgsubr
        </CharString>
        <CharString name="uni0394">
          -50 callsubr
        </CharString>
        <CharString name="uni03A9">
          41 callsubr
          198 170 1046 170 vstem
          209 -72 callsubr
        </CharString>
        <CharString name="uni03BC">
          -76 callgsubr
        </CharString>
        <CharString name="uni1E02">
          26 callgsubr
          209 -21 hstemhm
          206 168 160 227 211 164 -67 172 hintmask 0000010100000000
          640 -92 callgsubr
          -3 callsubr
          -434 -1691 rmoveto
          89 hlineto
          hintmask 0111001001000000
          -8 callgsubr
          hintmask 1011001001000000
          -2 callgsubr
          hintmask 1011001010000000
          -92 1 rlineto
          168 -675 rmoveto
          hintmask 1010101001000000
          -8 callsubr
          hintmask 1011001010000000
          -75 -207 -5 9 -65 hvcurveto
          hintmask 1010101001000000
          -29 callgsubr
        </CharString>
        <CharString name="uni1E03">
          -57 -17 123 919 131 45 callgsubr
          184 167 288 230 102 170 hintmask 11010100
          -64 callgsubr
          hintmask 00101000
          395 1233 -89 callgsubr
        </CharString>
        <CharString name="uni1E0A">
          32 callgsubr
          210 -21 -53 callgsubr
          226 227 380 176 hintmask 00001010
          707 -92 callgsubr
          hintmask 00000000
          -501 -1691 rmoveto
          22 callgsubr
          hintmask 01100101
          -77 callgsubr
          hintmask 10100101
          7 callgsubr
          hintmask 10010101
          1271 -73 callsubr
          hintmask 10100101
          -18 callsubr
        </CharString>
        <CharString name="uni1E0B">
          -62 2 callsubr
          45 callgsubr
          102 171 -13 230 402 -14 callsubr
          hintmask 10101010
          -45 callgsubr
          hintmask 01101010
          -39 callsubr
          hintmask 10101010
          -83 callgsubr
          hintmask 00010100
          -230 1273 -89 callgsubr
        </CharString>
        <CharString name="uni1E1E">
          40 callgsubr
          190 -21 -53 callgsubr
          177 227 hintmask 00010100
          658 -92 callgsubr
          hintmask 11101000
          -452 -1691 rmoveto
          10 callsubr
        </CharString>
        <CharString name="uni1E1F">
          -500 19 callgsubr
          64 242 15 callgsubr
          -167 230 hintmask 00010100
          379 1746 -102 callsubr
          hintmask 11101000
          -107 -1746 -103 callgsubr
          endchar
        </CharString>
        <CharString name="uni1E40">
          624 6 -21 35 -21 1398 125 190 -21 hstemhm
          149 1629 -928 227 hintmask 00010100
          956 -92 callgsubr
          hintmask 00000000
          -807 -1692 31 callsubr
          hintmask 01101000
          16 callsubr
          hintmask 10101000
          -26 callgsubr
        </CharString>
        <CharString name="uni1E41">
          677 21 callsubr
          -18 -20 269 242 14 callsubr
          527 230 -198 167 540 2 callgsubr
          hintmask 11001011
          -70 callgsubr
          hintmask 10101011
          -27 callsubr
          hintmask 00010100
          801 5 callsubr
        </CharString>
        <CharString name="uni1E56">
          -22 21 -21 527 125 762 122 -14 -20 210 -21 -53 callgsubr
          190 227 232 169 hintmask 00001010
          671 -92 callgsubr
          hintmask 00000000
          -465 -1691 rmoveto
          -21 callsubr
          hintmask 11100101
          31 callgsubr
          hintmask 11010101
          -13 callgsubr
          hintmask 11100101
          -61 -114 4 8 -62 hvcurveto
          endchar
        </CharString>
        <CharString name="uni1E57">
          32 callsubr
          268 30 callgsubr
          187 166 228 230 163 170 hintmask 00000000
          hintmask 11100101
          -22 callgsubr
          hintmask 11010101
          12 callgsubr
          hintmask 11100101
          -11 callgsubr
          hintmask 11010101
          -123 -75 25 32 -37 hvcurveto
          hintmask 00001010
          335 1225 -89 callgsubr
        </CharString>
        <CharString name="uni1E60">
          -23 callgsubr
          174 35 callgsubr
          203 227 170 166 hintmask 00101000
          611 -92 callgsubr
          hintmask 11010100
          -475 -1617 -75 callsubr
        </CharString>
        <CharString name="uni1E61">
          -16 callsubr
          45 callgsubr
          132 155 112 230 98 156 hintmask 11010100
          123 66 -105 callsubr
          hintmask 00101000
          357 1196 -89 callgsubr
        </CharString>
        <CharString name="uni1E6A">
          -22 21 37 callgsubr
          190 -21 hstemhm
          521 227 -195 171 hintmask 00110000
          627 -92 callgsubr
          hintmask 11001000
          -74 -1691 rmoveto
          -43 callsubr
        </CharString>
        <CharString name="uni1E6B">
          -452 -16 35 callsubr
          418 30 callgsubr
          237 230 -227 166 hintmask 11001000
          240 270 -89 callsubr
          hintmask 00110000
          104 544 -89 callgsubr
        </CharString>
        <CharString name="uni2113">
          -87 -29 132 1454 123 hstem
          323 136 473 140 vstem
          40 149 rmoveto
          132 -89 61 49 61 53 60 55 rlinecurve
          -159 43 87 -87 126 hhcurveto
          202 150 285 140 44 hvcurveto
          -138 25 rlineto
          -146 -50 -96 -172 -109 hhcurveto
          -63 -58 68 157 -23 hvcurveto
          337 342 266 419 364 vvcurveto
          133 -56 94 -114 -311 -268 -634 -547 -43 1 -41 4 -38 vhcurveto
          -88 -82 -97 -77 -103 -69 rrcurveto
          419 359 rmoveto
          420 5 227 629 188 hhcurveto
          37 16 -60 -44 -261 -176 -364 -297 -320 hvcurveto
          endchar
        </CharString>
        <CharString name="uni2215">
          33 callgsubr
          -34 922 vstem
          -34 -363 rmoveto
          147 hlineto
          775 1962 rlineto
          -147 hlineto
          endchar
        </CharString>
        <CharString name="uni2219">
          -646 572 308 hstem
          183 288 vstem
          319 572 rmoveto
          82 74 70 94 -4 hvcurveto
          78 -1 -47 66 -89 hhcurveto
          -78 -76 -74 -90 3 hvcurveto
          -84 2 62 -60 72 hhcurveto
          endchar
        </CharString>
        <CharString name="uogonek">
          -52 29 callgsubr
          383 138 -117 -21 25 -21 1152 -20 -12 callsubr
          322 165 61 -14 callsubr
          hintmask 11001111
          183 471 -79 callgsubr
          hintmask 10101111
          -61 vlineto
          -27 6 -17 11 -10 vhcurveto
          -117 -56 -147 -123 2 -135 rrcurveto
          -136 1 107 -64 1 callgsubr
          hintmask 10011111
          -2 120 131 94 87 54 rrcurveto
          12 1152 -167 -911 hlineto
          hintmask 11001111
          -88 callgsubr
          endchar
        </CharString>
        <CharString name="uring">
          -63 callsubr
          212 97 334 95 -12 callsubr
          -15 8 callsubr
          -56 167 hintmask 0001101100000000
          640 1332 -79 callsubr
          -3 callsubr
          -458 -958 -79 callgsubr
          hintmask 1010010010000000
          -77 callsubr
          hintmask 0110010010000000
          -88 callgsubr
          endchar
        </CharString>
        <CharString name="utilde">
          -63 callsubr
          243 -19 callsubr
          183 166 -118 822 -156 167 -3 callsubr
          hintmask 1010001010000000
          183 471 -79 callgsubr
          hintmask 0110001010000000
          -77 callsubr
          hintmask 1010001010000000
          -88 callgsubr
          -3 callsubr
          114 268 -74 callgsubr
        </CharString>
        <CharString name="v">
          -187 36 callgsubr
          hstem
          37 1040 vstem
          493 -18 rmoveto
          142 hlineto
          442 1158 rlineto
          -178 hlineto
          -249 -708 -84 -278 -90 278 -259 708 rlineto
          -180 hlineto
          endchar
        </CharString>
        <CharString name="w">
          46 callsubr
          44 callgsubr
          hintmask 00000000
          hintmask 10110000
          398 -18 3 callgsubr
          hintmask 11010000
          -95 callgsubr
          endchar
        </CharString>
        <CharString name="wacute">
          334 36 callgsubr
          587 -21 44 callgsubr
          -893 457 hintmask 00101000
          789 1323 -101 callsubr
          hintmask 00000000
          -305 -1409 3 callgsubr
          hintmask 11010000
          -95 callgsubr
          endchar
        </CharString>
        <CharString name="wcircumflex">
          334 36 callgsubr
          190 390 44 callgsubr
          -1142 737 hintmask 00101000
          551 1310 -97 callsubr
          hintmask 00000000
          -56 -1371 3 callgsubr
          hintmask 11010000
          -95 callgsubr
          endchar
        </CharString>
        <CharString name="wdieresis">
          334 36 callgsubr
          296 225 44 callgsubr
          -1105 21 callgsubr
          hintmask 00000000
          hintmask 00101100
          1042 1416 -93 callgsubr
          hintmask 00000000
          -193 -1434 3 callgsubr
          hintmask 11010000
          -95 callgsubr
          endchar
        </CharString>
        <CharString name="wgrave">
          46 callsubr
          587 -21 44 callgsubr
          -1123 457 hintmask 00000000
          hintmask 10101000
          398 -18 3 callgsubr
          hintmask 11001000
          -95 callgsubr
          hintmask 00010100
          806 183 -90 callsubr
        </CharString>
        <CharString name="x">
          -164 21 -21 1140 -20 hstem
          74 997 vstem
          74 hmoveto
          191 hlineto
          261 400 37 70 40 -63 275 -407 rlineto
          193 hlineto
          -411 579 408 561 rlineto
          -187 hlineto
          -272 -393 -36 -67 -38 62 -272 398 rlineto
          -189 hlineto
          406 -564 rlineto
          endchar
        </CharString>
        <CharString name="y">
          -46 callgsubr
          hstemhm
          56 1011 hintmask 00000000
          hintmask 10111000
          120 -356 rmoveto
          hintmask 01111000
          -137 vlineto
          hintmask 10111000
          -99 callgsubr
          endchar
        </CharString>
        <CharString name="yacute">
          -46 callgsubr
          579 -21 hstemhm
          56 1011 -606 457 hintmask 00000000
          hintmask 10110100
          120 -356 rmoveto
          hintmask 01110100
          -137 vlineto
          hintmask 10110100
          -99 callgsubr
          hintmask 00001010
          427 1671 -10 callgsubr
        </CharString>
        <CharString name="ycircumflex">
          -46 callgsubr
          182 390 hstemhm
          56 1011 -856 737 hintmask 00000000
          hintmask 10110100
          120 -356 rmoveto
          hintmask 01110100
          -137 vlineto
          hintmask 10110100
          -99 callgsubr
          hintmask 00001010
          188 1658 -40 callsubr
        </CharString>
        <CharString name="ydieresis">
          -46 callgsubr
          hstemhm
          56 1011 hintmask 00000000
          hintmask 10111000
          120 -356 rmoveto
          hintmask 01111000
          -137 vlineto
          hintmask 10111000
          -99 callgsubr
          hintmask 00000000
          679 1764 -31 callsubr
        </CharString>
        <CharString name="yen">
          241 21 -21 322 110 257 110 723 -20 hstem
          689 166 vstem
          283 322 rmoveto
          406 -322 166 322 390 110 -390 257 390 110 -365 hlineto
          476 723 rlineto
          -178 hlineto
          -336 -529 -69 -144 -73 139 -330 534 rlineto
          -182 hlineto
          469 -723 rlineto
          -374 -110 406 -257 -406 hlineto
          endchar
        </CharString>
        <CharString name="ygrave">
          -46 callgsubr
          579 -21 hstemhm
          56 1011 -836 457 hintmask 00000000
          hintmask 10110100
          120 -356 rmoveto
          hintmask 01110100
          -137 vlineto
          hintmask 10110100
          -99 callgsubr
          hintmask 00001010
          483 1671 -90 callsubr
        </CharString>
        <CharString name="z">
          -12 callgsubr
          hstemhm
          93 890 hintmask 00000000
          hintmask 11010000
          93 65 -27 callgsubr
          hintmask 10110000
          594 846 rlineto
          hintmask 11010000
          -24 callgsubr
          endchar
        </CharString>
        <CharString name="zacute">
          -12 callgsubr
          559 -21 hstemhm
          93 890 -555 457 hintmask 00010100
          514 1315 -101 callsubr
          hintmask 00000000
          -335 -1318 -27 callgsubr
          hintmask 11001000
          594 846 rlineto
          hintmask 10101000
          -24 callgsubr
          endchar
        </CharString>
        <CharString name="zcaron">
          -12 callgsubr
          549 -21 22 -21 hstemhm
          93 890 -803 737 hintmask 00000000
          hintmask 00001010
          477 1322 rmoveto
          149 hlineto
          hintmask 00010010
          -48 callgsubr
          hintmask 00001010
          -18 callgsubr
          hintmask 00000000
          -87 -1604 -27 callgsubr
          hintmask 11000100
          594 846 rlineto
          hintmask 10100100
          -24 callgsubr
          endchar
        </CharString>
        <CharString name="zdotaccent">
          -12 callgsubr
          248 30 callgsubr
          93 890 -549 230 hintmask 00000000
          hintmask 11001000
          93 65 -27 callgsubr
          hintmask 10101000
          594 846 rlineto
          hintmask 11001000
          -24 callgsubr
          hintmask 00010100
          -148 474 -89 callgsubr
        </CharString>
        <CharString name="zero">
          77 -12 108 1063 111 hstem
          152 163 748 164 vstem
          152 643 rmoveto
          -341 -3 146 -314 387 hhcurveto
          319 223 267 382 3 hvcurveto
          350 3 -128 283 -395 hhcurveto
          -307 -242 -242 -385 -6 hvcurveto
          536 -547 rmoveto
          -262 4 -112 268 1 281 2 314 148 197 232 -1 rrcurveto
          264 103 -236 -293 -1 hvcurveto
          -1 -329 -139 -208 -235 3 rrcurveto
          endchar
        </CharString>
      <CharString index="0">
        -38 callsubr
        145 -119 202 162 129 66 56 62 vhcurveto
        1 -42 rlineto
        -75 30 -5 58 vhcurveto
        68 823 hlineto
        286 -157 64 -232 -185 -195 -88 -26 -39 vhcurveto
        41 -110 rlineto
        43 60 159 54 116 hhcurveto
        170 96 -32 -184 hvcurveto
        -132 vlineto
        -119 -192 -17 -50 -134 hvcurveto
        -159 -59 -87 -105 -150 vvcurveto
        165 13 rmoveto
        101 59 64 114 43 vhcurveto
        40 97 174 13 82 hhcurveto
        -367 vlineto
        -28 -26 -126 -71 -143 hhcurveto
        -164 -67 85 120 hvcurveto
        return
      </CharString>
      <CharString index="1">
        rmoveto
        -9 -460 258 -334 420 9 385 8 286 267 10 505 9 466 -257 311 -403 -3 -385 -3 -304 -260 -10 -506 rrcurveto
        674 -655 rmoveto
        -332 -2 -173 298 2 348 2 433 229 215 291 3 320 2 167 -289 -1 -350 -3 -426 -202 -230 -300 -2 rrcurveto
        return
      </CharString>
      <CharString index="2">
        167 1014 303 126 -303 128 hlineto
        185 82 95 120 79 44 -7 -13 36 vhcurveto
        133 vlineto
        8 -21 -54 13 -61 hhcurveto
        -182 -210 -112 -338 hvcurveto
        -92 vlineto
        -196 -34 rlineto
        -92 196 vlineto
        return
      </CharString>
      <CharString index="3">
        rmoveto
        -37 55 177 -53 200 hhcurveto
        294 206 133 268 241 -226 115 -203 97 hvcurveto
        -103 callsubr
        return
      </CharString>
      <CharString index="4">
        rmoveto
        -105 callgsubr
        return
      </CharString>
      <CharString index="5">
        -80 callgsubr
        183 hlineto
        -574 1538 rlineto
        -166 hlineto
        -209 -993 rmoveto
        255 694 38 121 38 -120 244 -695 rlineto
        return
      </CharString>
      <CharString index="6">
        rmoveto
        124 61 157 118 105 105 -111 102 rcurveline
        -40 -45 -262 -234 -45 -36 rrcurveto
        return
      </CharString>
      <CharString index="7">
        rmoveto
        -325 179 -244 314 144 132 43 66 72 vhcurveto
        -35 96 rlineto
        -32 -49 -107 -47 -132 hhcurveto
        -194 -170 157 319 8 hvcurveto
        298 8 172 143 187 hhcurveto
        107 94 -21 -41 56 hvcurveto
        29 132 rlineto
        27 -40 -103 32 -134 hhcurveto
        -348 -191 -258 -345 1 hvcurveto
        return
      </CharString>
      <CharString index="8">
        -8 12 69 -6 30 hhcurveto
        31 43 6 7 29 hvcurveto
        150 42 101 150 90 273 392 1169 rcurveline
        -180 hlineto
        -237 -782 -66 -224 -76 224 -274 782 rlineto
        -178 hlineto
        428 -1140 rlineto
        49 hlineto
        -294 -75 -124 -74 -115 hhcurveto
        -29 -48 5 7 -22 hvcurveto
        return
      </CharString>
      <CharString index="9">
        -98 callsubr
        endchar
      </CharString>
      <CharString index="10">
        rmoveto
        212 137 152 173 -12 hvcurveto
        -114 hlineto
        -47 -1 -32 -146 -190 hhcurveto
        -194 -25 143 50 -2 hvcurveto
        -117 hlineto
        -173 -12 126 -152 224 hhcurveto
        return
      </CharString>
      <CharString index="11">
        rmoveto
        211 140 181 178 -13 hvcurveto
        -114 hlineto
        -49 -31 -180 -192 -196 -24 177 52 -1 vhcurveto
        -118 hlineto
        -178 -12 129 -181 221 hhcurveto
        endchar
      </CharString>
      <CharString index="12">
        32 147 30 -147 237 -837 rlineto
        154 hlineto
        355 1158 rlineto
        -163 hlineto
        -221 -788 -43 -179 -42 184 -223 783 rlineto
        -165 hlineto
        -221 -783 -40 -180 -43 180 -229 783 rlineto
        -167 hlineto
        return
      </CharString>
      <CharString index="13">
        877 -168 -837 vlineto
        -437 -146 -131 -241 -257 -153 125 442 vhcurveto
        return
      </CharString>
      <CharString index="14">
        rmoveto
        62 55 46 74 62 -30 43 -69 -59 -4 callgsubr
        55 hvcurveto
        -451 hmoveto
        62 55 46 74 62 -29 43 -70 -59 -59 -21 callgsubr
        return
      </CharString>
      <CharString index="15">
        1691 rmoveto
        64 57 49 77 62 -33 47 -72 -61 -61 -54 -71 -70 48 -40 58 hvcurveto
        return
      </CharString>
      <CharString index="16">
        889 -23 callsubr
        -1 -20 269 242 -82 41 callgsubr
        545 -15 callsubr
        hintmask 1010000010000000
        1813 hmoveto
        -66 callgsubr
        hintmask 0001000100000000
        -78 callgsubr
        hintmask 1100110000000000
        -1620 -52 callsubr
        hintmask 1100101000000000
        801 -1014 -103 callgsubr
        endchar
      </CharString>
      <CharString index="17">
        rmoveto
        76 55 119 154 252 vvcurveto
        158 -60 114 -96 41 vhcurveto
        -108 -88 rlineto
        -47 vlineto
        58 -29 49 -107 -104 vvcurveto
        -143 -62 -137 -48 -47 vhcurveto
        -25 vlineto
        return
      </CharString>
      <CharString index="18">
        -102 callsubr
        endchar
      </CharString>
      <CharString index="19">
        -48 -64 -134 -59 -116 hhcurveto
        -177 -57 57 285 hvcurveto
        676 -166 vlineto
        return
      </CharString>
      <CharString index="20">
        156 970 hlineto
        -11 329 156 -265 687 -1034 rlineto
        155 1522 -155 -996 hlineto
        12 -311 -142 247 -701 1060 rlineto
        -157 hlineto
        endchar
      </CharString>
      <CharString index="21">
        -86 callsubr
        hintmask 10101010
        -94 callgsubr
        hintmask 11001010
        -37 callgsubr
        endchar
      </CharString>
      <CharString index="22">
        rmoveto
        71 71 -45 36 -262 234 -40 45 rlinecurve
        -111 -102 94 -99 182 -129 111 -56 rlinecurve
        return
      </CharString>
      <CharString index="23">
        -296 -666 rmoveto
        90 47 57 45 37 vhcurveto
        -7 41 52 -3 66 hhcurveto
        154 hlineto
        225 75 -55 -131 -147 -188 -69 -196 -217 -104 68 160 hvcurveto
        return
      </CharString>
      <CharString index="24">
        -344 -228 -259 -364 hvcurveto
        495 -418 rmoveto
        -204 -124 144 297 4 hvcurveto
        304 3 164 174 218 hhcurveto
        122 75 -24 -32 37 hvcurveto
        -749 vlineto
        -48 -56 -108 -66 -131 hhcurveto
        return
      </CharString>
      <CharString index="25">
        548 hmoveto
        172 587 hlineto
        499 935 rlineto
        -179 hlineto
        -359 -701 -44 -115 -51 115 -374 701 rlineto
        -181 hlineto
        517 -938 rlineto
        return
      </CharString>
      <CharString index="26">
        rmoveto
        63 78 56 156 176 vvcurveto
        103 -18 97 -42 38 vhcurveto
        -133 -41 -10 -37 rlineto
        29 -36 24 -94 -78 vvcurveto
        -183 -39 -67 -21 -63 vhcurveto
        7 -23 rlineto
        endchar
      </CharString>
      <CharString index="27">
        33 hmoveto
        180 hlineto
        153 418 rlineto
        665 hlineto
        147 -418 rlineto
        return
      </CharString>
      <CharString index="28">
        rmoveto
        -289 40 -198 294 133 160 59 74 106 vhcurveto
        return
      </CharString>
      <CharString index="29">
        79 -59 callsubr
        return
      </CharString>
      <CharString index="30">
        102 -1 135 -11 86 -2 rrcurveto
        475 -7 269 329 499 vvcurveto
        460 1 -238 271 -483 -120 -123 -13 -95 hhcurveto
        return
      </CharString>
      <CharString index="31">
        58 -16 131 -128 134 -113 -21 1153 -20 hstemhm
        216 166 551 2 callgsubr
        hintmask 10011100
        348 113 rmoveto
        -102 64 102 -27 117 hhcurveto
        162 111 102 52 51 hvcurveto
        hintmask 00111100
        -110 -4 43 -41 69 hhcurveto
        91 83 71 29 17 hvcurveto
        hintmask 01011100
        -24 76 rlineto
        -35 -41 -33 -7 -16 hhcurveto
        -27 -14 19 88 hvcurveto
        912 -166 -905 vlineto
        hintmask 10011100
        -38 -48 -124 -82 -116 hhcurveto
        -173 1 -90 83 185 vvcurveto
        756 -166 -1511 156 vlineto
        endchar
      </CharString>
      <CharString index="32">
        rmoveto
        -227 188 -96 290 vhcurveto
        304 -1 246 141 226 vvcurveto
        143 -65 140 -327 vhcurveto
        -247 hlineto
        return
      </CharString>
      <CharString index="33">
        rmoveto
        hintmask 0001010100000000
        -51 callsubr
        hintmask 0001100100000000
        -73 callgsubr
        hintmask 0001010100000000
        -22 callsubr
      </CharString>
      <CharString index="34">
        119 94 84 91 46 hvcurveto
        -67 56 rlineto
        -45 -38 -60 -59 -94 -122 -14 148 -168 hhcurveto
        return
      </CharString>
      <CharString index="35">
        193 hmoveto
        167 879 hlineto
        90 69 139 66 114 3 194 6 60 -88 -1 -246 rrcurveto
        -689 167 677 vlineto
        1 356 -103 128 -250 -4 -165 -3 -169 -86 -85 -67 8 156 rcurveline
        return
      </CharString>
      <CharString index="36">
        -78 48 -98 22 -105 -2 rrcurveto
        -243 -5 -198 -122 -271 vvcurveto
        -143 73 -112 115 -63 vhcurveto
        return
      </CharString>
      <CharString index="37">
        193 hmoveto
        167 878 hlineto
        90 74 143 60 102 4 rrcurveto
        187 9 37 -101 -227 vvcurveto
        -697 167 708 vlineto
        72 -4 62 -9 52 vhcurveto
        85 60 129 61 108 2 rrcurveto
        200 6 31 -116 -212 vvcurveto
        -695 166 703 vlineto
        339 -93 118 -241 -3 vhcurveto
        -162 -2 -166 -85 -86 -66 -48 116 -90 39 -144 -2 -158 -3 -177 -94 -84 -67 rrcurveto
        return
      </CharString>
      <CharString index="38">
        rmoveto
        53 -89 174 25 214 129 44 243 rlinecurve
        24 133 -5 162 177 vvcurveto
        985 -172 -968 vlineto
        -210 2 -194 -36 -119 vhcurveto
        -44 -149 -130 -91 -124 -34 rrcurveto
        return
      </CharString>
      <CharString index="39">
        rmoveto
        540 -283 156 283 193 hlineto
        -1 116 rlineto
        -192 298 hlineto
        -149 -16 -6 -280 rlineto
        -2 -397 vlineto
        56 100 384 629 -99 59 rlineto
        -52 hlineto
        -474 -832 rlineto
        return
      </CharString>
      <CharString index="40">
        rrcurveto
        -118 -6 -57 -47 -80 hhcurveto
        -37 -36 7 11 -17 hvcurveto
        -41 callgsubr
        return
      </CharString>
      <CharString index="41">
        166 1139 -166 hlineto
        return
      </CharString>
      <CharString index="42">
        rmoveto
        -198 149 -119 202 185 148 87 117 95 vhcurveto
        -134 83 139 -70 187 hhcurveto
        142 170 43 62 76 hvcurveto
        -33 97 rlineto
        -39 -60 -151 -36 -102 hhcurveto
        -211 -153 104 298 -10 hvcurveto
        -1 13 0 14 13 vvcurveto
        748 hlineto
        9 47 -1 55 73 vvcurveto
        -6 260 -161 171 -241 -3 -171 -2 -131 -67 -87 -112 rrcurveto
        return
      </CharString>
      <CharString index="43">
        184 64 rmoveto
        -27 39 177 -54 167 hhcurveto
        342 232 256 373 365 -201 179 -249 -181 -107 -83 -57 -59 hvcurveto
        7 170 rlineto
        475 -167 vlineto
        167 -1506 rmoveto
        754 vlineto
        51 56 112 65 127 hhcurveto
        214 113 -153 -282 -2 hvcurveto
        -325 -3 -181 -159 -202 hhcurveto
        -105 -91 20 29 -38 hvcurveto
        return
      </CharString>
      <CharString index="44">
        697 -346 rmoveto
        -215 128 -186 218 5 vhcurveto
        195 5 179 140 260 vvcurveto
        223 -104 184 -241 -7 vhcurveto
        -196 -6 -179 -142 -261 vvcurveto
        149 6 rmoveto
        180 87 110 130 2 vhcurveto
        135 2 70 -123 -173 vvcurveto
        -181 -87 -106 -129 -1 vhcurveto
        -129 -1 -77 128 163 vvcurveto
        endchar
      </CharString>
      <CharString index="45">
        86 96 rlineto
        47 vlineto
        -66 28 -56 104 100 vvcurveto
        144 68 137 57 46 vhcurveto
        25 vlineto
        -72 47 rlineto
        -82 -55 -128 -156 -219 vvcurveto
        -159 74 -144 119 -41 vhcurveto
        return
      </CharString>
      <CharString index="46">
        -98 0 133 588 131 539 131 return
      </CharString>
      <CharString index="47">
        612 vlineto
        11 62 111 5 91 hhcurveto
        260 116 -86 -217 hvcurveto
        -1 -222 -141 -107 -214 -2 rrcurveto
        return
      </CharString>
      <CharString index="48">
        -77 -517 115 402 132 248 112 511 134 -95 114 return
      </CharString>
      <CharString index="49">
        rmoveto
        148 hlineto
        265 271 -92 44 rlineto
        return
      </CharString>
      <CharString index="50">
        -248 -202 -244 202 -97 -46 rlineto
        return
      </CharString>
      <CharString index="51">
        rmoveto
        543 124 -543 hlineto
        return
      </CharString>
      <CharString index="52">
        rmoveto
        774 126 hlineto
        -545 -4 271 158 205 203 2 232 rlinecurve
        155 1 -109 148 -250 hhcurveto
        -189 -152 -101 -95 -62 hvcurveto
        70 -84 rlineto
        106 83 104 53 118 hhcurveto
        140 83 -70 -139 -238 -353 -255 -224 -109 hvcurveto
        return
      </CharString>
      <CharString index="53">
        -21 -44 callgsubr
        return
      </CharString>
      <CharString index="54">
        hstemhm
        -30 callgsubr
        return
      </CharString>
      <CharString index="55">
        92 21 -33 callsubr
        return
      </CharString>
      <CharString index="56">
        rmoveto
        136 251 hlineto
        -6 172 149 -5 rlineto
        255 134 -255 hlineto
        -149 -8 6 171 rlineto
        244 -136 -244 vlineto
        5 -171 -163 8 rlineto
        -237 -134 237 hlineto
        163 5 -5 -172 rlineto
        endchar
      </CharString>
      <CharString index="57">
        46 38 67 62 80 123 15 -154 166 hhcurveto
        return
      </CharString>
      <CharString index="58">
        1322 rmoveto
        149 hlineto
        hintmask 00100100
        -48 callgsubr
        hintmask 00010100
        -18 callgsubr
        return
      </CharString>
      <CharString index="59">
        291 346 -103 44 -263 -263 rlineto
        return
      </CharString>
      <CharString index="60">
        -277 -298 rlineto
        endchar
      </CharString>
      <CharString index="61">
        -194 -507 139 -104 -21 514 -21 1140 -20 return
      </CharString>
      <CharString index="62">
        102 533 rmoveto
        -386 217 -163 233 186 107 87 55 57 vhcurveto
        return
      </CharString>
      <CharString index="63">
        1522 -20 return
      </CharString>
      <CharString index="64">
        -85 callgsubr
        endchar
      </CharString>
      <CharString index="65">
        65 -33 44 -72 -61 -60 -50 -74 vhcurveto
        return
      </CharString>
      <CharString index="66">
        -41 callsubr
        116 103 63 169 10 hvcurveto
        return
      </CharString>
      <CharString index="67">
        -78 -16 119 932 121 return
      </CharString>
      <CharString index="68">
        144 -49 -120 38 -167 hhcurveto
        -183 -202 -88 -26 -41 hvcurveto
        42 -112 rlineto
        43 65 163 56 115 hhcurveto
        152 100 -27 -202 hvcurveto
        -119 vlineto
        -131 -179 -15 -52 -133 hvcurveto
        return
      </CharString>
      <CharString index="69">
        166 224 hlineto
        -4 177 179 180 414 -581 rlineto
        191 hlineto
        -494 692 445 447 rlineto
        -198 hlineto
        -537 -554 4 123 rlineto
        953 -166 vlineto
        endchar
      </CharString>
      <CharString index="70">
        1 839 rlineto
        -169 hlineto
        return
      </CharString>
      <CharString index="71">
        rmoveto
        653 -436 44 121 -534 388 534 391 -44 125 -653 -448 rlineto
        return
      </CharString>
      <CharString index="72">
        hstemhm
        121 163 -142 166 -114 153 return
      </CharString>
      <CharString index="73">
        -97 callgsubr
        endchar
      </CharString>
      <CharString index="74">
        -480 hmoveto
        65 56 46 77 hvcurveto
        return
      </CharString>
      <CharString index="75">
        -21 1139 -20 return
      </CharString>
      <CharString index="76">
        189 hlineto
        199 417 rlineto
        506 -417 945 133 -776 586 526 131 -526 541 702 131 -1034 hlineto
        -283 -978 rmoveto
        return
      </CharString>
      <CharString index="77">
        206 169 return
      </CharString>
      <CharString index="78">
        -718 vmoveto
        589 vlineto
        6 51 202 -2 76 hhcurveto
        229 -4 137 -84 -202 vvcurveto
        -240 -148 -83 -261 -93 -109 4 16 -84 vhcurveto
        endchar
      </CharString>
      <CharString index="79">
        rmoveto
        36 -66 rlineto
        1036 133 -849 hlineto
        86 106 rlineto
        return
      </CharString>
      <CharString index="80">
        rmoveto
        34 -65 rlineto
        846 122 -655 hlineto
        71 98 rlineto
        return
      </CharString>
      <CharString index="81">
        106 -947 rlineto
        171 hlineto
        -196 1522 rlineto
        -228 hlineto
        -318 -989 -73 -286 -75 286 -337 989 rlineto
        -240 hlineto
        endchar
      </CharString>
      <CharString index="82">
        -19 callgsubr
        endchar
      </CharString>
      <CharString index="83">
        -29 74 rlineto
        -812 -128 616 hlineto
        -69 -98 rlineto
        return
      </CharString>
      <CharString index="84">
        -147 -16 135 1286 133 return
      </CharString>
      <CharString index="85">
        350 22 rmoveto
        -20 52 77 -18 94 hhcurveto
        344 227 259 364 386 -216 163 -234 -195 -107 -95 -54 -54 hvcurveto
        return
      </CharString>
      <CharString index="86">
        -37 callsubr
        56 hvcurveto
        return
      </CharString>
      <CharString index="87">
        98 52 66 118 44 vhcurveto
        38 89 148 15 116 hhcurveto
        -10 vlineto
        -109 14 -95 29 -79 vhcurveto
        -76 -51 -141 -97 -149 hhcurveto
        return
      </CharString>
      <CharString index="88">
        801 133 -629 1389 -172 hlineto
        return
      </CharString>
      <CharString index="89">
        -274 263 -97 -43 rlineto
        return
      </CharString>
      <CharString index="90">
        hmoveto
        -5 callgsubr
        return
      </CharString>
      <CharString index="91">
        27 -16 134 1282 138 return
      </CharString>
      <CharString index="92">
        -289 -16 126 917 129 return
      </CharString>
      <CharString index="93">
        -539 -21 581 -21 return
      </CharString>
      <CharString index="94">
        734 vlineto
        71 10 92 4 78 2 rrcurveto
        273 6 135 -110 -266 vvcurveto
        -290 -181 -99 -231 -3 vhcurveto
        return
      </CharString>
      <CharString index="95">
        -229 0 122 890 128 -74 74 return
      </CharString>
      <CharString index="96">
        48 55 109 68 132 hhcurveto
        205 123 -144 -297 -3 hvcurveto
        -304 -4 -163 -174 -219 hhcurveto
        return
      </CharString>
      <CharString index="97">
        -101 callsubr
        endchar
      </CharString>
      <CharString index="98">
        -107 -118 -81 -96 -42 hvcurveto
        return
      </CharString>
      <CharString index="99">
        -4 100 136 -10 110 hhcurveto
        446 154 178 289 199 -163 153 -186 9 hvcurveto
        return
      </CharString>
      <CharString index="100">
        -658 1743 124 hstem
        50 543 vstem
        50 13 callgsubr
        endchar
      </CharString>
      <CharString index="101">
        -11 -89 -1 0 hvcurveto
        169 -739 rmoveto
        return
      </CharString>
      <CharString index="102">
        167 1664 -167 hlineto
        return
      </CharString>
      <CharString index="103">
        -58 -37 callsubr
        return
      </CharString>
      <CharString index="104">
        -21 418 127 return
      </CharString>
      <CharString index="105">
        179 44 65 176 145 vvcurveto
        224 -164 132 -334 vhcurveto
        -139 -74 -13 -127 hhcurveto
        return
      </CharString>
      <CharString index="106">
        -58 callgsubr
        hintmask 00101000
        -57 callgsubr
        return
      </CharString>
      <CharString index="107">
        rmoveto
        -21 67 88 -17 74 hhcurveto
        307 144 153 192 114 -80 137 -207 6 hvcurveto
        return
      </CharString>
      <CharString index="108">
        134 hhcurveto
        82 96 21 41 53 hvcurveto
        92 vlineto
        -52 -26 -57 -14 -50 -1 rrcurveto
        -83 -65 26 93 -1 hvcurveto
        return
      </CharString>
</ttFont>
